<svg version="1.1" viewBox="0.0 0.0 1280.0 720.0" fill="none" stroke="none" stroke-linecap="square" stroke-miterlimit="10" xmlns:xlink="http://www.w3.org/1999/xlink" xmlns="http://www.w3.org/2000/svg"><clipPath id="g361bc27c394_0_18.0"><path d="m0 0l1280.0 0l0 720.0l-1280.0 0l0 -720.0z" clip-rule="nonzero"/></clipPath><g clip-path="url(#g361bc27c394_0_18.0)"><path fill="#ffffff" d="m0 0l1280.0 0l0 720.0l-1280.0 0z" fill-rule="evenodd"/><path fill="#000000" fill-opacity="0.0" d="m159.9999 373.33344l960.0 0l0 60.47937l-960.0 0z" fill-rule="evenodd"/><path fill="#000000" fill-opacity="0.0" d="m159.9999 373.33344l960.0 0l0 60.47937l-960.0 0z" fill-rule="evenodd"/><g filter="url(#shadowFilter-g361bc27c394_0_18.1)"><use xlink:href="#g361bc27c394_0_18.1" transform="matrix(1.0 0.0 0.0 1.0 13.199326509186351 13.199326509186342)"/></g><defs><filter id="shadowFilter-g361bc27c394_0_18.1" filterUnits="userSpaceOnUse"><feGaussianBlur in="SourceAlpha" stdDeviation="5.3333335" result="blur"/><feComponentTransfer in="blur" color-interpolation-filters="sRGB"><feFuncR type="linear" slope="0" intercept="0.0"/><feFuncG type="linear" slope="0" intercept="0.0"/><feFuncB type="linear" slope="0" intercept="0.0"/><feFuncA type="linear" slope="0.2745" intercept="0"/></feComponentTransfer></filter></defs><g id="g361bc27c394_0_18.1"><path fill="#3331b4" d="m67.6127 109.20873l0 0c0 -15.11348 12.2519 -27.365372 27.36538 -27.365372l1090.0566 0c7.2578125 0 14.218262 2.8831253 19.350342 8.015129c5.131958 5.132004 8.015137 12.092499 8.015137 19.350243l0 109.45823c0 15.11348 -12.251953 27.365372 -27.365479 27.365372l-1090.0566 0c-15.11348 0 -27.36538 -12.251892 -27.36538 -27.365372z" fill-rule="evenodd"/><path fill="#ffffff" d="m304.02026 194.94585l-13.078125 -41.0625l6.75 0l7.921875 25.6875q0.34375 0.953125 0.640625 2.21875q0.296875 1.25 0.53125 2.546875q0.234375 1.28125 0.4375 2.40625q0.203125 1.109375 0.375 1.8125l-1.703125 -0.0625q0.890625 -3.109375 1.375 -4.8125q0.5 -1.703125 0.796875 -2.609375q0.296875 -0.90625 0.53125 -1.546875l7.390625 -18.546875l5.6875 0l7.15625 18.546875q0.59375 1.40625 1.03125 2.78125q0.4375 1.375 0.78125 2.765625q0.359375 1.375 0.765625 2.890625l-1.515625 0.421875q0.296875 -1.59375 0.4375 -2.5q0.140625 -0.90625 0.25 -1.484375q0.125 -0.59375 0.234375 -1.15625q0.125 -0.5625 0.390625 -1.4375q0.265625 -0.875 0.734375 -2.40625l7.796875 -25.515625l6.8125 0l-13.078125 41.0625l-4.40625 0l-10.84375 -25.6875l0.515625 0.234375l-10.4375 25.453125l-4.28125 0zm61.0643 0.59375q-4.75 0 -8.421875 -2.015625q-3.65625 -2.03125 -5.75 -5.546875q-2.078125 -3.53125 -2.078125 -8.109375q0 -3.640625 1.171875 -6.625q1.171875 -2.984375 3.25 -5.1875q2.09375 -2.203125 4.984375 -3.40625q2.90625 -1.203125 6.3125 -1.203125q3.0 0 5.578125 1.15625q2.578125 1.140625 4.484375 3.140625q1.90625 1.984375 2.921875 4.71875q1.03125 2.71875 0.984375 5.9375l-0.0625 2.59375l-25.171875 0l-1.34375 -4.8125l21.296875 0l-0.875 1.0l0 -1.421875q-0.1875 -1.921875 -1.296875 -3.453125q-1.109375 -1.53125 -2.8125 -2.40625q-1.703125 -0.875 -3.703125 -0.875q-3.15625 0 -5.328125 1.203125q-2.171875 1.203125 -3.296875 3.515625q-1.109375 2.3125 -1.109375 5.71875q0 3.21875 1.34375 5.59375q1.359375 2.375 3.8125 3.671875q2.46875 1.296875 5.703125 1.296875q2.28125 0 4.234375 -0.765625q1.96875 -0.765625 4.265625 -2.765625l3.046875 4.28125q-1.40625 1.421875 -3.4375 2.484375q-2.015625 1.046875 -4.28125 1.671875q-2.25 0.609375 -4.421875 0.609375zm34.372528 0q-4.75 0 -8.421875 -2.015625q-3.65625 -2.03125 -5.75 -5.546875q-2.078125 -3.53125 -2.078125 -8.109375q0 -3.640625 1.171875 -6.625q1.171875 -2.984375 3.25 -5.1875q2.09375 -2.203125 4.984375 -3.40625q2.90625 -1.203125 6.3125 -1.203125q3.0 0 5.578125 1.15625q2.578125 1.140625 4.484375 3.140625q1.90625 1.984375 2.921875 4.71875q1.03125 2.71875 0.984375 5.9375l-0.0625 2.59375l-25.171875 0l-1.34375 -4.8125l21.296875 0l-0.875 1.0l0 -1.421875q-0.1875 -1.921875 -1.296875 -3.453125q-1.109375 -1.53125 -2.8125 -2.40625q-1.703125 -0.875 -3.703125 -0.875q-3.15625 0 -5.328125 1.203125q-2.171875 1.203125 -3.296875 3.515625q-1.109375 2.3125 -1.109375 5.71875q0 3.21875 1.34375 5.59375q1.359375 2.375 3.8125 3.671875q2.46875 1.296875 5.703125 1.296875q2.28125 0 4.234375 -0.765625q1.96875 -0.765625 4.265625 -2.765625l3.046875 4.28125q-1.40625 1.421875 -3.4375 2.484375q-2.015625 1.046875 -4.28125 1.671875q-2.25 0.609375 -4.421875 0.609375zm25.513184 -10.21875l-0.296875 -6.5625l14.734375 -14.609375l8.140625 0l-22.578125 21.171875zm-5.515625 9.625l0 -43.40625l6.046875 0l0 43.40625l-6.046875 0zm20.765625 0l-11.609375 -13.546875l4.28125 -3.9375l15.078125 17.484375l-7.75 0zm12.382751 0l0 -43.40625l6.03125 0l0 43.40625l-6.03125 0zm18.889587 13.484375l6.21875 -14.359375l0.046875 4.8125l-15.359375 -34.734375l7.03125 0l9.625 22.640625q0.296875 0.59375 0.703125 1.796875q0.40625 1.203125 0.703125 2.375l-1.53125 0.34375q0.46875 -1.234375 0.90625 -2.453125q0.453125 -1.234375 0.859375 -2.46875l8.03125 -22.234375l7.15625 0l-12.671875 30.796875l-5.21875 13.484375l-6.5 0zm46.862366 -13.484375l0 -41.0625l17.484375 0q3.515625 0 6.46875 1.734375q2.96875 1.734375 4.71875 4.703125q1.765625 2.953125 1.765625 6.640625q0 3.34375 -1.765625 6.21875q-1.75 2.875 -4.6875 4.609375q-2.921875 1.734375 -6.5 1.734375l-11.15625 0l0 15.421875l-6.328125 0zm24.40625 0l-10.453125 -18.53125l6.515625 -1.46875l11.609375 20.0625l-7.671875 -0.0625zm-18.078125 -21.53125l11.734375 0q1.703125 0 3.046875 -0.84375q1.359375 -0.859375 2.109375 -2.34375q0.765625 -1.5 0.765625 -3.3125q0 -2.0625 -0.96875 -3.609375q-0.96875 -1.5625 -2.703125 -2.4375q-1.71875 -0.875 -3.890625 -0.875l-10.09375 0l0 13.421875zm46.1084 22.125q-4.75 0 -8.421875 -2.015625q-3.65625 -2.03125 -5.75 -5.546875q-2.078125 -3.53125 -2.078125 -8.109375q0 -3.640625 1.171875 -6.625q1.171875 -2.984375 3.25 -5.1875q2.09375 -2.203125 4.984375 -3.40625q2.90625 -1.203125 6.3125 -1.203125q3.0 0 5.578125 1.15625q2.578125 1.140625 4.484375 3.140625q1.90625 1.984375 2.921875 4.71875q1.03125 2.71875 0.984375 5.9375l-0.0625 2.59375l-25.171875 0l-1.34375 -4.8125l21.296875 0l-0.875 1.0l0 -1.421875q-0.1875 -1.921875 -1.296875 -3.453125q-1.109375 -1.53125 -2.8125 -2.40625q-1.703125 -0.875 -3.703125 -0.875q-3.15625 0 -5.328125 1.203125q-2.171875 1.203125 -3.296875 3.515625q-1.109375 2.3125 -1.109375 5.71875q0 3.21875 1.34375 5.59375q1.359375 2.375 3.8125 3.671875q2.46875 1.296875 5.703125 1.296875q2.28125 0 4.234375 -0.765625q1.96875 -0.765625 4.265625 -2.765625l3.046875 4.28125q-1.40625 1.421875 -3.4375 2.484375q-2.015625 1.046875 -4.28125 1.671875q-2.25 0.609375 -4.421875 0.609375zm30.263123 0q-3.875 0 -6.984375 -1.34375q-3.09375 -1.359375 -5.15625 -4.0l4.109375 -3.515625q1.765625 2.046875 3.84375 2.953125q2.078125 0.90625 4.71875 0.90625q1.0625 0 1.96875 -0.25q0.90625 -0.265625 1.578125 -0.796875q0.671875 -0.53125 1.015625 -1.265625q0.359375 -0.734375 0.359375 -1.609375q0 -1.53125 -1.109375 -2.46875q-0.59375 -0.40625 -1.859375 -0.90625q-1.25 -0.5 -3.25 -1.03125q-3.390625 -0.875 -5.5625 -1.984375q-2.171875 -1.125 -3.34375 -2.53125q-0.875 -1.109375 -1.296875 -2.421875q-0.40625 -1.328125 -0.40625 -2.90625q0 -1.9375 0.84375 -3.546875q0.859375 -1.625 2.34375 -2.828125q1.5 -1.203125 3.515625 -1.84375q2.03125 -0.640625 4.328125 -0.640625q2.171875 0 4.3125 0.59375q2.140625 0.578125 3.953125 1.703125q1.8125 1.109375 3.046875 2.625l-3.453125 3.8125q-1.125 -1.109375 -2.453125 -1.953125q-1.3125 -0.859375 -2.65625 -1.328125q-1.34375 -0.46875 -2.46875 -0.46875q-1.21875 0 -2.21875 0.234375q-1.0 0.234375 -1.671875 0.703125q-0.671875 0.46875 -1.03125 1.171875q-0.34375 0.703125 -0.34375 1.578125q0.046875 0.765625 0.375 1.453125q0.328125 0.671875 0.90625 1.140625q0.65625 0.46875 1.9375 1.0q1.296875 0.515625 3.28125 0.984375q2.9375 0.765625 4.84375 1.671875q1.90625 0.90625 3.015625 2.09375q1.171875 1.109375 1.640625 2.578125q0.46875 1.46875 0.46875 3.28125q0 2.640625 -1.5 4.71875q-1.484375 2.078125 -4.015625 3.265625q-2.515625 1.171875 -5.625 1.171875zm32.20569 0q-4.75 0 -8.421875 -2.015625q-3.65625 -2.03125 -5.75 -5.546875q-2.078125 -3.53125 -2.078125 -8.109375q0 -3.640625 1.171875 -6.625q1.171875 -2.984375 3.25 -5.1875q2.09375 -2.203125 4.984375 -3.40625q2.90625 -1.203125 6.3125 -1.203125q3.0 0 5.578125 1.15625q2.578125 1.140625 4.484375 3.140625q1.90625 1.984375 2.921875 4.71875q1.03125 2.71875 0.984375 5.9375l-0.0625 2.59375l-25.171875 0l-1.34375 -4.8125l21.296875 0l-0.875 1.0l0 -1.421875q-0.1875 -1.921875 -1.296875 -3.453125q-1.109375 -1.53125 -2.8125 -2.40625q-1.703125 -0.875 -3.703125 -0.875q-3.15625 0 -5.328125 1.203125q-2.171875 1.203125 -3.296875 3.515625q-1.109375 2.3125 -1.109375 5.71875q0 3.21875 1.34375 5.59375q1.359375 2.375 3.8125 3.671875q2.46875 1.296875 5.703125 1.296875q2.28125 0 4.234375 -0.765625q1.96875 -0.765625 4.265625 -2.765625l3.046875 4.28125q-1.40625 1.421875 -3.4375 2.484375q-2.015625 1.046875 -4.28125 1.671875q-2.25 0.609375 -4.421875 0.609375zm31.856934 0q-3.8125 0 -6.953125 -2.109375q-3.140625 -2.125 -5.015625 -5.75q-1.875 -3.640625 -1.875 -8.21875q0 -4.640625 1.90625 -8.234375q1.90625 -3.609375 5.15625 -5.65625q3.25 -2.0625 7.296875 -2.0625q2.40625 0 4.40625 0.703125q2.0 0.703125 3.484375 1.96875q1.5 1.25 2.46875 2.90625q0.96875 1.640625 1.203125 3.515625l-1.34375 -0.46875l0 -7.984375l6.09375 0l0 30.796875l-6.09375 0l0 -7.328125l1.40625 -0.421875q-0.359375 1.59375 -1.453125 3.09375q-1.078125 1.484375 -2.75 2.65625q-1.671875 1.171875 -3.703125 1.890625q-2.015625 0.703125 -4.234375 0.703125zm1.578125 -5.578125q2.75 0 4.859375 -1.34375q2.125 -1.359375 3.328125 -3.734375q1.203125 -2.375 1.203125 -5.421875q0 -3.0 -1.203125 -5.34375q-1.203125 -2.34375 -3.328125 -3.6875q-2.109375 -1.359375 -4.859375 -1.359375q-2.703125 0 -4.78125 1.359375q-2.078125 1.34375 -3.28125 3.6875q-1.203125 2.34375 -1.203125 5.34375q0 3.046875 1.203125 5.421875q1.203125 2.375 3.28125 3.734375q2.078125 1.34375 4.78125 1.34375zm23.691895 4.984375l0 -30.796875l6.109375 0l0 9.6875l-0.59375 -2.359375q0.640625 -2.21875 2.1875 -4.03125q1.5625 -1.828125 3.578125 -2.875q2.03125 -1.0625 4.203125 -1.0625q1.0 0 1.90625 0.171875q0.921875 0.171875 1.4375 0.40625l-1.578125 6.578125q-0.703125 -0.296875 -1.5625 -0.5q-0.84375 -0.203125 -1.671875 -0.203125q-1.578125 0 -3.015625 0.625q-1.4375 0.609375 -2.53125 1.703125q-1.078125 1.078125 -1.71875 2.515625q-0.640625 1.421875 -0.640625 3.125l0 17.015625l-6.109375 0zm35.425903 0.59375q-4.28125 0 -7.65625 -2.109375q-3.359375 -2.125 -5.328125 -5.75q-1.96875 -3.640625 -1.96875 -8.15625q0 -4.515625 1.96875 -8.15625q1.96875 -3.640625 5.328125 -5.75q3.375 -2.109375 7.65625 -2.109375q4.109375 0 7.484375 1.671875q3.375 1.671875 5.140625 4.546875l-3.34375 4.109375q-0.953125 -1.359375 -2.421875 -2.46875q-1.453125 -1.109375 -3.09375 -1.75q-1.640625 -0.65625 -3.171875 -0.65625q-2.8125 0 -5.015625 1.375q-2.203125 1.375 -3.5 3.78125q-1.28125 2.40625 -1.28125 5.40625q0 2.984375 1.34375 5.359375q1.359375 2.375 3.578125 3.78125q2.234375 1.40625 4.9375 1.40625q1.578125 0 3.078125 -0.515625q1.5 -0.53125 2.90625 -1.578125q1.40625 -1.0625 2.640625 -2.59375l3.34375 4.109375q-1.890625 2.640625 -5.375 4.34375q-3.484375 1.703125 -7.25 1.703125zm18.302979 -0.59375l0 -43.40625l6.046875 0l0 18.953125l-1.0625 0.703125q0.59375 -2.0625 2.296875 -3.78125q1.703125 -1.734375 4.046875 -2.8125q2.34375 -1.09375 4.8125 -1.09375q3.515625 0 5.859375 1.375q2.34375 1.375 3.515625 4.203125q1.171875 2.8125 1.171875 7.09375l0 18.765625l-6.03125 0l0 -18.359375q0 -2.640625 -0.703125 -4.359375q-0.703125 -1.734375 -2.171875 -2.53125q-1.46875 -0.796875 -3.640625 -0.671875q-1.765625 0 -3.234375 0.5625q-1.453125 0.546875 -2.546875 1.546875q-1.078125 1.0 -1.703125 2.328125q-0.609375 1.3125 -0.609375 2.828125l0 18.65625l-3.0 0q-0.75 0 -1.515625 0q-0.765625 0 -1.53125 0zm65.52728 0.59375q-3.34375 0 -6.1875 -0.875q-2.84375 -0.890625 -5.171875 -2.671875q-2.3125 -1.796875 -4.125 -4.4375l4.328125 -4.984375q2.875 4.109375 5.515625 5.6875q2.640625 1.578125 6.28125 1.578125q2.234375 0 4.046875 -0.703125q1.8125 -0.703125 2.875 -1.921875q1.0625 -1.234375 1.0625 -2.828125q0 -1.046875 -0.359375 -1.984375q-0.34375 -0.9375 -1.078125 -1.703125q-0.734375 -0.765625 -1.890625 -1.40625q-1.140625 -0.65625 -2.671875 -1.140625q-1.515625 -0.5 -3.515625 -0.859375q-3.15625 -0.640625 -5.515625 -1.6875q-2.34375 -1.0625 -3.921875 -2.640625q-1.578125 -1.59375 -2.34375 -3.609375q-0.765625 -2.03125 -0.765625 -4.5625q0 -2.453125 1.078125 -4.5625q1.09375 -2.125 3.0 -3.671875q1.90625 -1.546875 4.484375 -2.390625q2.578125 -0.859375 5.578125 -0.859375q3.171875 0 5.796875 0.828125q2.640625 0.8125 4.6875 2.421875q2.0625 1.609375 3.421875 3.953125l-4.46875 4.40625q-1.171875 -1.9375 -2.640625 -3.25q-1.46875 -1.328125 -3.234375 -2.0q-1.75 -0.671875 -3.734375 -0.671875q-2.296875 0 -4.0 0.703125q-1.703125 0.703125 -2.671875 1.96875q-0.953125 1.25 -0.953125 2.953125q0 1.234375 0.46875 2.265625q0.46875 1.015625 1.421875 1.8125q0.96875 0.796875 2.609375 1.421875q1.65625 0.609375 3.9375 1.078125q3.234375 0.703125 5.75 1.796875q2.515625 1.078125 4.28125 2.546875q1.765625 1.453125 2.671875 3.28125q0.90625 1.8125 0.90625 3.921875q0 3.9375 -1.828125 6.8125q-1.8125 2.875 -5.15625 4.4375q-3.34375 1.546875 -7.96875 1.546875zm33.19525 0q-3.28125 0 -5.71875 -1.53125q-2.4375 -1.53125 -3.765625 -4.28125q-1.3125 -2.765625 -1.3125 -6.578125l0 -19.0l6.046875 0l0 17.359375q0 2.703125 0.84375 4.671875q0.859375 1.96875 2.46875 3.03125q1.609375 1.046875 3.90625 1.046875q1.703125 0 3.109375 -0.5625q1.40625 -0.5625 2.421875 -1.546875q1.03125 -1.0 1.609375 -2.40625q0.59375 -1.40625 0.59375 -3.0625l0 -18.53125l6.046875 0l0 30.796875l-6.046875 0l0 -6.453125l1.0625 -0.703125q-0.703125 2.171875 -2.375 3.9375q-1.671875 1.75 -3.96875 2.78125q-2.28125 1.03125 -4.921875 1.03125zm24.690125 -0.59375l0 -30.796875l6.109375 0l0 9.6875l-0.59375 -2.359375q0.640625 -2.21875 2.1875 -4.03125q1.5625 -1.828125 3.578125 -2.875q2.03125 -1.0625 4.203125 -1.0625q1.0 0 1.90625 0.171875q0.921875 0.171875 1.4375 0.40625l-1.578125 6.578125q-0.703125 -0.296875 -1.5625 -0.5q-0.84375 -0.203125 -1.671875 -0.203125q-1.578125 0 -3.015625 0.625q-1.4375 0.609375 -2.53125 1.703125q-1.078125 1.078125 -1.71875 2.515625q-0.640625 1.421875 -0.640625 3.125l0 17.015625l-6.109375 0zm36.665527 0l-13.015625 -30.796875l6.5 0l9.390625 23.046875l-1.109375 0.53125l10.03125 -23.578125l6.203125 0l-13.65625 30.796875l-4.34375 0zm37.01123 0.59375q-4.75 0 -8.421875 -2.015625q-3.65625 -2.03125 -5.75 -5.546875q-2.078125 -3.53125 -2.078125 -8.109375q0 -3.640625 1.171875 -6.625q1.171875 -2.984375 3.25 -5.1875q2.09375 -2.203125 4.984375 -3.40625q2.90625 -1.203125 6.3125 -1.203125q3.0 0 5.578125 1.15625q2.578125 1.140625 4.484375 3.140625q1.90625 1.984375 2.921875 4.71875q1.03125 2.71875 0.984375 5.9375l-0.0625 2.59375l-25.171875 0l-1.34375 -4.8125l21.296875 0l-0.875 1.0l0 -1.421875q-0.1875 -1.921875 -1.296875 -3.453125q-1.109375 -1.53125 -2.8125 -2.40625q-1.703125 -0.875 -3.703125 -0.875q-3.15625 0 -5.328125 1.203125q-2.171875 1.203125 -3.296875 3.515625q-1.109375 2.3125 -1.109375 5.71875q0 3.21875 1.34375 5.59375q1.359375 2.375 3.8125 3.671875q2.46875 1.296875 5.703125 1.296875q2.28125 0 4.234375 -0.765625q1.96875 -0.765625 4.265625 -2.765625l3.046875 4.28125q-1.40625 1.421875 -3.4375 2.484375q-2.015625 1.046875 -4.28125 1.671875q-2.25 0.609375 -4.421875 0.609375zm24.582764 12.890625l6.21875 -14.359375l0.046875 4.8125l-15.359375 -34.734375l7.03125 0l9.625 22.640625q0.296875 0.59375 0.703125 1.796875q0.40625 1.203125 0.703125 2.375l-1.53125 0.34375q0.46875 -1.234375 0.90625 -2.453125q0.453125 -1.234375 0.859375 -2.46875l8.03125 -22.234375l7.15625 0l-12.671875 30.796875l-5.21875 13.484375l-6.5 0z" fill-rule="nonzero"/></g><path fill="#000000" fill-opacity="0.0" d="m218.49985 301.92398l842.99207 0l0 93.25986l-842.99207 0z" fill-rule="evenodd"/><path fill="#000000" d="m377.40848 341.76398l0 -26.125l3.953125 0l9.53125 15.484375l-1.90625 -0.03125l9.625 -15.453125l3.734375 0l0 26.125l-4.03125 0l0 -10.71875q0 -3.359375 0.15625 -6.046875q0.171875 -2.6875 0.59375 -5.328125l0.515625 1.375l-8.546875 13.21875l-2.46875 0l-8.28125 -13.0625l0.40625 -1.53125q0.421875 2.5 0.578125 5.140625q0.171875 2.625 0.171875 6.234375l0 10.71875l-4.03125 0zm40.095337 0.375q-2.875 0 -5.140625 -1.328125q-2.25 -1.328125 -3.5625 -3.625q-1.296875 -2.296875 -1.296875 -5.234375q0 -2.953125 1.296875 -5.25q1.3125 -2.296875 3.5625 -3.625q2.265625 -1.328125 5.140625 -1.328125q2.828125 0 5.078125 1.328125q2.265625 1.328125 3.578125 3.625q1.3125 2.296875 1.3125 5.25q0 2.9375 -1.3125 5.234375q-1.3125 2.296875 -3.578125 3.625q-2.25 1.328125 -5.078125 1.328125zm0 -3.515625q1.75 0 3.125 -0.875q1.390625 -0.875 2.171875 -2.375q0.78125 -1.515625 0.75 -3.421875q0.03125 -1.953125 -0.75 -3.453125q-0.78125 -1.515625 -2.171875 -2.375q-1.375 -0.859375 -3.125 -0.859375q-1.75 0 -3.15625 0.875q-1.40625 0.875 -2.1875 2.390625q-0.78125 1.515625 -0.75 3.421875q-0.03125 1.90625 0.75 3.421875q0.78125 1.5 2.1875 2.375q1.40625 0.875 3.15625 0.875zm14.144379 3.140625l0 -27.625l3.84375 0l0 12.0625l-0.671875 0.4375q0.375 -1.296875 1.453125 -2.390625q1.09375 -1.109375 2.578125 -1.796875q1.5 -0.703125 3.0625 -0.703125q2.234375 0 3.71875 0.890625q1.5 0.875 2.25 2.671875q0.75 1.78125 0.75 4.515625l0 11.9375l-3.84375 0l0 -11.6875q0 -1.671875 -0.453125 -2.765625q-0.4375 -1.109375 -1.375 -1.609375q-0.9375 -0.515625 -2.3125 -0.4375q-1.125 0 -2.0625 0.359375q-0.921875 0.34375 -1.625 0.984375q-0.6875 0.640625 -1.078125 1.484375q-0.390625 0.828125 -0.390625 1.796875l0 11.875l-1.90625 0q-0.484375 0 -0.96875 0q-0.484375 0 -0.96875 0zm29.757172 0.375q-2.4375 0 -4.4375 -1.34375q-1.984375 -1.34375 -3.1875 -3.65625q-1.1875 -2.3125 -1.1875 -5.234375q0 -2.9375 1.203125 -5.234375q1.21875 -2.296875 3.28125 -3.609375q2.078125 -1.3125 4.65625 -1.3125q1.53125 0 2.796875 0.453125q1.265625 0.453125 2.21875 1.265625q0.953125 0.796875 1.5625 1.84375q0.625 1.03125 0.78125 2.234375l-0.859375 -0.296875l0 -5.078125l3.875 0l0 19.59375l-3.875 0l0 -4.671875l0.890625 -0.25q-0.21875 1.0 -0.921875 1.953125q-0.6875 0.953125 -1.75 1.703125q-1.0625 0.75 -2.359375 1.203125q-1.28125 0.4375 -2.6875 0.4375zm1.0 -3.546875q1.75 0 3.09375 -0.859375q1.34375 -0.859375 2.109375 -2.359375q0.765625 -1.515625 0.765625 -3.46875q0 -1.90625 -0.765625 -3.390625q-0.765625 -1.5 -2.109375 -2.359375q-1.34375 -0.859375 -3.09375 -0.859375q-1.71875 0 -3.046875 0.859375q-1.3125 0.859375 -2.078125 2.359375q-0.765625 1.484375 -0.765625 3.390625q0 1.953125 0.765625 3.46875q0.765625 1.5 2.078125 2.359375q1.328125 0.859375 3.046875 0.859375zm15.003784 3.171875l0 -19.59375l3.890625 0l0 4.171875l-0.71875 0.453125q0.296875 -0.96875 0.953125 -1.859375q0.65625 -0.90625 1.609375 -1.59375q0.953125 -0.6875 2.046875 -1.09375q1.109375 -0.421875 2.265625 -0.421875q1.671875 0 2.9375 0.5625q1.28125 0.5625 2.09375 1.6875q0.828125 1.109375 1.203125 2.796875l-0.59375 -0.15625l0.25 -0.625q0.421875 -0.859375 1.140625 -1.625q0.734375 -0.765625 1.65625 -1.359375q0.9375 -0.609375 1.984375 -0.9375q1.046875 -0.34375 2.0625 -0.34375q2.1875 0 3.625 0.90625q1.4375 0.890625 2.171875 2.71875q0.734375 1.828125 0.734375 4.546875l0 11.765625l-3.890625 0l0 -11.53125q0 -1.6875 -0.4375 -2.75q-0.421875 -1.0625 -1.28125 -1.578125q-0.859375 -0.53125 -2.203125 -0.53125q-1.046875 0 -1.96875 0.359375q-0.90625 0.359375 -1.578125 1.0q-0.671875 0.625 -1.046875 1.46875q-0.359375 0.828125 -0.359375 1.84375l0 11.71875l-3.890625 0l0 -11.609375q0 -1.53125 -0.453125 -2.59375q-0.4375 -1.0625 -1.296875 -1.625q-0.859375 -0.5625 -2.09375 -0.5625q-1.046875 0 -1.953125 0.359375q-0.890625 0.359375 -1.5625 0.96875q-0.671875 0.609375 -1.046875 1.453125q-0.359375 0.84375 -0.359375 1.8125l0 11.796875l-3.890625 0zm34.379333 0l0 -19.59375l3.8905945 0l0 4.171875l-0.71875 0.453125q0.296875 -0.96875 0.953125 -1.859375q0.65625 -0.90625 1.609375 -1.59375q0.953125 -0.6875 2.046875 -1.09375q1.109375 -0.421875 2.265625 -0.421875q1.671875 0 2.9375 0.5625q1.28125 0.5625 2.09375 1.6875q0.828125 1.109375 1.203125 2.796875l-0.59375 -0.15625l0.25 -0.625q0.421875 -0.859375 1.140625 -1.625q0.734375 -0.765625 1.65625 -1.359375q0.9375 -0.609375 1.984375 -0.9375q1.046875 -0.34375 2.0625 -0.34375q2.1875 0 3.625 0.90625q1.4375 0.890625 2.171875 2.71875q0.734375 1.828125 0.734375 4.546875l0 11.765625l-3.890625 0l0 -11.53125q0 -1.6875 -0.4375 -2.75q-0.421875 -1.0625 -1.28125 -1.578125q-0.859375 -0.53125 -2.203125 -0.53125q-1.046875 0 -1.96875 0.359375q-0.90625 0.359375 -1.578125 1.0q-0.671875 0.625 -1.046875 1.46875q-0.359375 0.828125 -0.359375 1.84375l0 11.71875l-3.890625 0l0 -11.609375q0 -1.53125 -0.453125 -2.59375q-0.4375 -1.0625 -1.296875 -1.625q-0.859375 -0.5625 -2.09375 -0.5625q-1.046875 0 -1.953125 0.359375q-0.890625 0.359375 -1.5625 0.96875q-0.671875 0.609375 -1.046875 1.453125q-0.359375 0.84375 -0.359375 1.8125l0 11.796875l-3.8905945 0zm42.004303 0.375q-2.4375 0 -4.4375 -1.34375q-1.984375 -1.34375 -3.1875 -3.65625q-1.1875 -2.3125 -1.1875 -5.234375q0 -2.9375 1.203125 -5.234375q1.21875 -2.296875 3.28125 -3.609375q2.078125 -1.3125 4.65625 -1.3125q1.53125 0 2.796875 0.453125q1.265625 0.453125 2.21875 1.265625q0.953125 0.796875 1.5625 1.84375q0.625 1.03125 0.78125 2.234375l-0.859375 -0.296875l0 -5.078125l3.875 0l0 19.59375l-3.875 0l0 -4.671875l0.890625 -0.25q-0.21875 1.0 -0.921875 1.953125q-0.6875 0.953125 -1.75 1.703125q-1.0625 0.75 -2.359375 1.203125q-1.28125 0.4375 -2.6875 0.4375zm1.0 -3.546875q1.75 0 3.09375 -0.859375q1.34375 -0.859375 2.109375 -2.359375q0.765625 -1.515625 0.765625 -3.46875q0 -1.90625 -0.765625 -3.390625q-0.765625 -1.5 -2.109375 -2.359375q-1.34375 -0.859375 -3.09375 -0.859375q-1.71875 0 -3.046875 0.859375q-1.3125 0.859375 -2.078125 2.359375q-0.765625 1.484375 -0.765625 3.390625q0 1.953125 0.765625 3.46875q0.765625 1.5 2.078125 2.359375q1.328125 0.859375 3.046875 0.859375zm23.253784 3.546875q-2.6875 0 -4.796875 -1.328125q-2.109375 -1.328125 -3.34375 -3.625q-1.21875 -2.296875 -1.21875 -5.234375q0 -2.953125 1.203125 -5.25q1.21875 -2.296875 3.296875 -3.625q2.09375 -1.328125 4.75 -1.328125q1.453125 0 2.8125 0.46875q1.375 0.46875 2.453125 1.28125q1.078125 0.796875 1.6875 1.75q0.625 0.953125 0.625 1.921875l-1.125 0.078125l0 -13.109375l3.84375 0l0 27.625l-3.84375 0l0 -4.671875l0.75 0q0 0.90625 -0.59375 1.78125q-0.59375 0.875 -1.59375 1.625q-0.984375 0.75 -2.28125 1.203125q-1.28125 0.4375 -2.625 0.4375zm0.53125 -3.328125q1.75 0 3.09375 -0.890625q1.34375 -0.890625 2.109375 -2.4375q0.765625 -1.5625 0.765625 -3.53125q0 -1.984375 -0.765625 -3.53125q-0.765625 -1.546875 -2.109375 -2.4375q-1.34375 -0.90625 -3.09375 -0.90625q-1.765625 0 -3.109375 0.90625q-1.34375 0.890625 -2.109375 2.4375q-0.765625 1.546875 -0.765625 3.53125q0 1.96875 0.765625 3.53125q0.765625 1.546875 2.109375 2.4375q1.34375 0.890625 3.109375 0.890625zm26.383606 2.953125l0 -26.125l3.953125 0l9.53125 15.484375l-1.90625 -0.03125l9.625 -15.453125l3.734375 0l0 26.125l-4.03125 0l0 -10.71875q0 -3.359375 0.15625 -6.046875q0.171875 -2.6875 0.59375 -5.328125l0.515625 1.375l-8.546875 13.21875l-2.46875 0l-8.28125 -13.0625l0.40625 -1.53125q0.421875 2.5 0.578125 5.140625q0.171875 2.625 0.171875 6.234375l0 10.71875l-4.03125 0zm40.095398 0.375q-2.875 0 -5.140625 -1.328125q-2.25 -1.328125 -3.5625 -3.625q-1.296875 -2.296875 -1.296875 -5.234375q0 -2.953125 1.296875 -5.25q1.3125 -2.296875 3.5625 -3.625q2.265625 -1.328125 5.140625 -1.328125q2.828125 0 5.078125 1.328125q2.265625 1.328125 3.578125 3.625q1.3125 2.296875 1.3125 5.25q0 2.9375 -1.3125 5.234375q-1.3125 2.296875 -3.578125 3.625q-2.25 1.328125 -5.078125 1.328125zm0 -3.515625q1.75 0 3.125 -0.875q1.390625 -0.875 2.171875 -2.375q0.78125 -1.515625 0.75 -3.421875q0.03125 -1.953125 -0.75 -3.453125q-0.78125 -1.515625 -2.171875 -2.375q-1.375 -0.859375 -3.125 -0.859375q-1.75 0 -3.15625 0.875q-1.40625 0.875 -2.1875 2.390625q-0.78125 1.515625 -0.75 3.421875q-0.03125 1.90625 0.75 3.421875q0.78125 1.5 2.1875 2.375q1.40625 0.875 3.15625 0.875zm11.800598 10.5l-1.46875 -2.953125q1.46875 0 2.40625 -0.515625q0.953125 -0.5 1.4375 -1.484375q0.484375 -0.984375 0.484375 -2.4375l0 -19.5625l3.859375 0l0 20.484375q0 1.90625 -0.84375 3.359375q-0.84375 1.46875 -2.359375 2.28125q-1.5 0.828125 -3.515625 0.828125zm4.875 -31.28125q-1.21875 0 -1.890625 -0.640625q-0.671875 -0.640625 -0.671875 -1.796875q0 -1.078125 0.6875 -1.75q0.6875 -0.671875 1.875 -0.671875q1.234375 0 1.90625 0.640625q0.671875 0.625 0.671875 1.78125q0 1.09375 -0.6875 1.765625q-0.6875 0.671875 -1.890625 0.671875zm9.782593 23.921875l0 -24.59375l3.84375 0l0 24.59375l-3.84375 0zm-4.0625 -15.859375l0 -3.734375l12.46875 0l0 3.734375l-12.46875 0zm23.3349 16.234375q-2.4375 0 -4.4375 -1.34375q-1.984375 -1.34375 -3.1875 -3.65625q-1.1875 -2.3125 -1.1875 -5.234375q0 -2.9375 1.203125 -5.234375q1.21875 -2.296875 3.28125 -3.609375q2.078125 -1.3125 4.65625 -1.3125q1.53125 0 2.796875 0.453125q1.265625 0.453125 2.21875 1.265625q0.953125 0.796875 1.5625 1.84375q0.625 1.03125 0.78125 2.234375l-0.859375 -0.296875l0 -5.078125l3.875 0l0 19.59375l-3.875 0l0 -4.671875l0.890625 -0.25q-0.21875 1.0 -0.921875 1.953125q-0.6875 0.953125 -1.75 1.703125q-1.0625 0.75 -2.359375 1.203125q-1.28125 0.4375 -2.6875 0.4375zm1.0 -3.546875q1.75 0 3.09375 -0.859375q1.34375 -0.859375 2.109375 -2.359375q0.765625 -1.515625 0.765625 -3.46875q0 -1.90625 -0.765625 -3.390625q-0.765625 -1.5 -2.109375 -2.359375q-1.34375 -0.859375 -3.09375 -0.859375q-1.71875 0 -3.046875 0.859375q-1.3125 0.859375 -2.078125 2.359375q-0.765625 1.484375 -0.765625 3.390625q0 1.953125 0.765625 3.46875q0.765625 1.5 2.078125 2.359375q1.328125 0.859375 3.046875 0.859375zm25.378784 3.546875q-1.265625 0 -2.515625 -0.40625q-1.25 -0.421875 -2.28125 -1.109375q-1.015625 -0.6875 -1.71875 -1.53125q-0.6875 -0.84375 -0.90625 -1.703125l0.96875 -0.515625l0 4.78125l-3.84375 0l0 -27.515625l3.84375 0l0 12.5l-0.59375 -0.328125q0.1875 -0.859375 0.8125 -1.65625q0.640625 -0.8125 1.625 -1.453125q1.0 -0.65625 2.15625 -1.046875q1.15625 -0.40625 2.34375 -0.40625q2.65625 0 4.703125 1.3125q2.0625 1.3125 3.25 3.609375q1.203125 2.296875 1.203125 5.234375q0 2.953125 -1.1875 5.265625q-1.171875 2.3125 -3.234375 3.640625q-2.046875 1.328125 -4.625 1.328125zm-0.625 -3.515625q1.71875 0 3.0625 -0.875q1.34375 -0.875 2.125 -2.375q0.78125 -1.515625 0.78125 -3.46875q0 -1.90625 -0.765625 -3.40625q-0.765625 -1.515625 -2.109375 -2.375q-1.34375 -0.859375 -3.09375 -0.859375q-1.765625 0 -3.109375 0.859375q-1.34375 0.859375 -2.125 2.375q-0.78125 1.5 -0.78125 3.40625q0 1.953125 0.78125 3.46875q0.78125 1.5 2.125 2.375q1.34375 0.875 3.109375 0.875zm21.391785 3.515625q-2.4375 0 -4.4375 -1.34375q-1.984375 -1.34375 -3.1875 -3.65625q-1.1875 -2.3125 -1.1875 -5.234375q0 -2.9375 1.203125 -5.234375q1.21875 -2.296875 3.28125 -3.609375q2.078125 -1.3125 4.65625 -1.3125q1.53125 0 2.796875 0.453125q1.265625 0.453125 2.21875 1.265625q0.953125 0.796875 1.5625 1.84375q0.625 1.03125 0.78125 2.234375l-0.859375 -0.296875l0 -5.078125l3.875 0l0 19.59375l-3.875 0l0 -4.671875l0.890625 -0.25q-0.21875 1.0 -0.921875 1.953125q-0.6875 0.953125 -1.75 1.703125q-1.0625 0.75 -2.359375 1.203125q-1.28125 0.4375 -2.6875 0.4375zm1.0 -3.546875q1.75 0 3.09375 -0.859375q1.34375 -0.859375 2.109375 -2.359375q0.765625 -1.515625 0.765625 -3.46875q0 -1.90625 -0.765625 -3.390625q-0.765625 -1.5 -2.109375 -2.359375q-1.34375 -0.859375 -3.09375 -0.859375q-1.71875 0 -3.046875 0.859375q-1.3125 0.859375 -2.078125 2.359375q-0.765625 1.484375 -0.765625 3.390625q0 1.953125 0.765625 3.46875q0.765625 1.5 2.078125 2.359375q1.328125 0.859375 3.046875 0.859375zm26.502563 3.171875l0 -26.125l11.125 0q2.234375 0 4.125 1.109375q1.890625 1.09375 3.0 2.984375q1.125 1.875 1.125 4.21875q0 2.140625 -1.125 3.96875q-1.109375 1.828125 -2.984375 2.9375q-1.859375 1.09375 -4.140625 1.09375l-7.09375 0l0 9.8125l-4.03125 0zm15.53125 0l-6.640625 -11.796875l4.140625 -0.9375l7.390625 12.765625l-4.890625 -0.03125zm-11.5 -13.703125l7.46875 0q1.078125 0 1.9375 -0.53125q0.859375 -0.546875 1.34375 -1.5q0.484375 -0.953125 0.484375 -2.109375q0 -1.3125 -0.625 -2.296875q-0.609375 -0.984375 -1.71875 -1.546875q-1.09375 -0.5625 -2.46875 -0.5625l-6.421875 0l0 8.546875zm29.008972 14.078125q-2.875 0 -5.140625 -1.328125q-2.25 -1.328125 -3.5625 -3.625q-1.296875 -2.296875 -1.296875 -5.234375q0 -2.953125 1.296875 -5.25q1.3125 -2.296875 3.5625 -3.625q2.265625 -1.328125 5.140625 -1.328125q2.828125 0 5.078125 1.328125q2.265625 1.328125 3.578125 3.625q1.3125 2.296875 1.3125 5.25q0 2.9375 -1.3125 5.234375q-1.3125 2.296875 -3.578125 3.625q-2.25 1.328125 -5.078125 1.328125zm0 -3.515625q1.75 0 3.125 -0.875q1.390625 -0.875 2.171875 -2.375q0.78125 -1.515625 0.75 -3.421875q0.03125 -1.953125 -0.75 -3.453125q-0.78125 -1.515625 -2.171875 -2.375q-1.375 -0.859375 -3.125 -0.859375q-1.75 0 -3.15625 0.875q-1.40625 0.875 -2.1875 2.390625q-0.78125 1.515625 -0.75 3.421875q-0.03125 1.90625 0.75 3.421875q0.78125 1.5 2.1875 2.375q1.40625 0.875 3.15625 0.875zm20.675598 3.515625q-2.46875 0 -4.453125 -0.859375q-1.96875 -0.859375 -3.265625 -2.546875l2.609375 -2.234375q1.109375 1.3125 2.4375 1.890625q1.328125 0.578125 3.015625 0.578125q0.671875 0 1.25 -0.171875q0.578125 -0.171875 1.0 -0.5q0.4375 -0.34375 0.65625 -0.796875q0.21875 -0.46875 0.21875 -1.03125q0 -0.96875 -0.703125 -1.578125q-0.375 -0.25 -1.1875 -0.5625q-0.796875 -0.328125 -2.0625 -0.65625q-2.171875 -0.5625 -3.546875 -1.265625q-1.375 -0.71875 -2.125 -1.609375q-0.5625 -0.71875 -0.828125 -1.546875q-0.25 -0.84375 -0.25 -1.859375q0 -1.234375 0.53125 -2.25q0.546875 -1.03125 1.5 -1.796875q0.953125 -0.765625 2.234375 -1.171875q1.296875 -0.421875 2.75 -0.421875q1.375 0 2.734375 0.375q1.375 0.375 2.53125 1.09375q1.15625 0.703125 1.9375 1.671875l-2.203125 2.421875q-0.71875 -0.703125 -1.5625 -1.234375q-0.828125 -0.546875 -1.6875 -0.84375q-0.859375 -0.296875 -1.5625 -0.296875q-0.78125 0 -1.421875 0.15625q-0.640625 0.140625 -1.078125 0.4375q-0.421875 0.296875 -0.640625 0.75q-0.21875 0.4375 -0.21875 1.0q0.03125 0.484375 0.234375 0.921875q0.203125 0.421875 0.578125 0.71875q0.421875 0.296875 1.234375 0.640625q0.828125 0.328125 2.09375 0.625q1.859375 0.484375 3.078125 1.078125q1.21875 0.578125 1.921875 1.3125q0.75 0.71875 1.046875 1.65625q0.296875 0.921875 0.296875 2.078125q0 1.6875 -0.953125 3.015625q-0.953125 1.3125 -2.5625 2.0625q-1.59375 0.75 -3.578125 0.75zm11.348999 -0.375l0 -27.625l3.84375 0l0 12.0625l-0.671875 0.4375q0.375 -1.296875 1.453125 -2.390625q1.09375 -1.109375 2.578125 -1.796875q1.5 -0.703125 3.0625 -0.703125q2.234375 0 3.71875 0.890625q1.5 0.875 2.25 2.671875q0.75 1.78125 0.75 4.515625l0 11.9375l-3.84375 0l0 -11.6875q0 -1.671875 -0.453125 -2.765625q-0.4375 -1.109375 -1.375 -1.609375q-0.9375 -0.515625 -2.3125 -0.4375q-1.125 0 -2.0625 0.359375q-0.921875 0.34375 -1.625 0.984375q-0.6875 0.640625 -1.078125 1.484375q-0.390625 0.828125 -0.390625 1.796875l0 11.875l-1.90625 0q-0.484375 0 -0.96875 0q-0.484375 0 -0.96875 0zm29.757202 0.375q-2.4375 0 -4.4375 -1.34375q-1.984375 -1.34375 -3.1875 -3.65625q-1.1875 -2.3125 -1.1875 -5.234375q0 -2.9375 1.203125 -5.234375q1.21875 -2.296875 3.28125 -3.609375q2.078125 -1.3125 4.65625 -1.3125q1.53125 0 2.796875 0.453125q1.265625 0.453125 2.21875 1.265625q0.953125 0.796875 1.5625 1.84375q0.625 1.03125 0.78125 2.234375l-0.859375 -0.296875l0 -5.078125l3.875 0l0 19.59375l-3.875 0l0 -4.671875l0.890625 -0.25q-0.21875 1.0 -0.921875 1.953125q-0.6875 0.953125 -1.75 1.703125q-1.0625 0.75 -2.359375 1.203125q-1.28125 0.4375 -2.6875 0.4375zm1.0 -3.546875q1.75 0 3.09375 -0.859375q1.34375 -0.859375 2.109375 -2.359375q0.765625 -1.515625 0.765625 -3.46875q0 -1.90625 -0.765625 -3.390625q-0.765625 -1.5 -2.109375 -2.359375q-1.34375 -0.859375 -3.09375 -0.859375q-1.71875 0 -3.046875 0.859375q-1.3125 0.859375 -2.078125 2.359375q-0.765625 1.484375 -0.765625 3.390625q0 1.953125 0.765625 3.46875q0.765625 1.5 2.078125 2.359375q1.328125 0.859375 3.046875 0.859375zm15.081909 3.171875l0 -19.59375l3.84375 0l0 4.03125l-0.671875 0.4375q0.375 -1.296875 1.453125 -2.390625q1.09375 -1.109375 2.578125 -1.796875q1.5 -0.703125 3.0625 -0.703125q2.234375 0 3.71875 0.890625q1.5 0.875 2.25 2.671875q0.75 1.78125 0.75 4.515625l0 11.9375l-3.84375 0l0 -11.6875q0 -1.671875 -0.453125 -2.765625q-0.4375 -1.109375 -1.375 -1.609375q-0.9375 -0.515625 -2.3125 -0.4375q-1.125 0 -2.0625 0.359375q-0.921875 0.34375 -1.625 0.984375q-0.6875 0.640625 -1.078125 1.484375q-0.390625 0.828125 -0.390625 1.796875l0 11.875l-1.90625 0q-0.484375 0 -0.96875 0q-0.484375 0 -0.96875 0zm22.850952 0l0 -19.59375l3.84375 0l0 19.59375l-3.84375 0zm1.859375 -23.921875q-1.234375 0 -1.90625 -0.640625q-0.671875 -0.640625 -0.671875 -1.796875q0 -1.078125 0.6875 -1.75q0.703125 -0.671875 1.890625 -0.671875q1.234375 0 1.90625 0.640625q0.671875 0.625 0.671875 1.78125q0 1.09375 -0.6875 1.765625q-0.6875 0.671875 -1.890625 0.671875z" fill-rule="nonzero"/><path fill="#000000" fill-opacity="0.0" d="m218.49985 421.7238l842.99207 0l0 122.01572l-842.99207 0z" fill-rule="evenodd"/><path fill="#000000" d="m330.4081 451.48004q-2.15625 0 -3.859375 -0.9375q-1.703125 -0.953125 -2.6875 -2.609375q-0.96875 -1.671875 -0.96875 -3.78125l0 -11.515625l2.875 0l0 11.28125q0 1.359375 0.640625 2.4375q0.640625 1.078125 1.6875 1.71875q1.0625 0.640625 2.3125 0.640625q1.34375 0 2.421875 -0.640625q1.078125 -0.640625 1.71875 -1.71875q0.640625 -1.078125 0.640625 -2.4375l0 -11.28125l2.734375 0l0 11.515625q0 2.109375 -0.96875 3.78125q-0.96875 1.65625 -2.6875 2.609375q-1.703125 0.9375 -3.859375 0.9375zm11.788055 -0.15625l0 -14.0l2.75 0l0 2.890625l-0.484375 0.3125q0.265625 -0.9375 1.03125 -1.71875q0.78125 -0.78125 1.84375 -1.265625q1.0625 -0.5 2.1875 -0.5q1.59375 0 2.65625 0.625q1.078125 0.625 1.609375 1.90625q0.53125 1.28125 0.53125 3.21875l0 8.53125l-2.75 0l0 -8.34375q0 -1.203125 -0.328125 -1.984375q-0.3125 -0.78125 -0.984375 -1.140625q-0.65625 -0.359375 -1.640625 -0.3125q-0.796875 0 -1.46875 0.25q-0.671875 0.25 -1.171875 0.703125q-0.484375 0.453125 -0.765625 1.0625q-0.265625 0.59375 -0.265625 1.28125l0 8.484375l-1.359375 0q-0.359375 0 -0.703125 0q-0.34375 0 -0.6875 0zm21.688538 0.265625q-1.90625 0 -3.421875 -0.9375q-1.5 -0.953125 -2.390625 -2.59375q-0.875 -1.640625 -0.875 -3.75q0 -2.09375 0.859375 -3.734375q0.875 -1.640625 2.359375 -2.578125q1.5 -0.953125 3.390625 -0.953125q1.046875 0 2.015625 0.328125q0.96875 0.328125 1.734375 0.90625q0.78125 0.578125 1.21875 1.265625q0.453125 0.671875 0.453125 1.359375l-0.8125 0.046875l0 -9.34375l2.75 0l0 19.71875l-2.75 0l0 -3.328125l0.546875 0q0 0.640625 -0.4375 1.265625q-0.421875 0.625 -1.125 1.15625q-0.703125 0.53125 -1.625 0.859375q-0.921875 0.3125 -1.890625 0.3125zm0.375 -2.375q1.265625 0 2.21875 -0.640625q0.953125 -0.640625 1.5 -1.734375q0.546875 -1.109375 0.546875 -2.53125q0 -1.40625 -0.546875 -2.515625q-0.546875 -1.109375 -1.5 -1.75q-0.953125 -0.640625 -2.21875 -0.640625q-1.25 0 -2.21875 0.640625q-0.953125 0.640625 -1.5 1.75q-0.546875 1.109375 -0.546875 2.515625q0 1.421875 0.546875 2.53125q0.546875 1.09375 1.5 1.734375q0.96875 0.640625 2.21875 0.640625zm17.228119 2.375q-2.15625 0 -3.828125 -0.921875q-1.671875 -0.921875 -2.625 -2.515625q-0.9375 -1.59375 -0.9375 -3.671875q0 -1.65625 0.53125 -3.015625q0.53125 -1.359375 1.484375 -2.359375q0.953125 -1.0 2.265625 -1.546875q1.3125 -0.546875 2.859375 -0.546875q1.359375 0 2.53125 0.515625q1.1875 0.515625 2.046875 1.421875q0.859375 0.90625 1.328125 2.15625q0.46875 1.234375 0.4375 2.703125l-0.015625 1.171875l-11.4375 0l-0.609375 -2.1875l9.671875 0l-0.40625 0.453125l0 -0.640625q-0.078125 -0.875 -0.59375 -1.5625q-0.5 -0.703125 -1.28125 -1.09375q-0.765625 -0.40625 -1.671875 -0.40625q-1.4375 0 -2.421875 0.546875q-0.984375 0.546875 -1.5 1.609375q-0.5 1.046875 -0.5 2.59375q0 1.453125 0.609375 2.546875q0.625 1.078125 1.734375 1.671875q1.125 0.578125 2.59375 0.578125q1.03125 0 1.921875 -0.34375q0.90625 -0.359375 1.9375 -1.265625l1.390625 1.953125q-0.640625 0.640625 -1.5625 1.125q-0.921875 0.46875 -1.953125 0.75q-1.015625 0.28125 -2.0 0.28125zm9.089233 -0.265625l0 -14.0l2.765625 0l0 4.40625l-0.265625 -1.0625q0.296875 -1.015625 1.0 -1.84375q0.703125 -0.828125 1.625 -1.296875q0.921875 -0.484375 1.90625 -0.484375q0.453125 0 0.859375 0.078125q0.421875 0.078125 0.65625 0.1875l-0.71875 2.984375q-0.3125 -0.140625 -0.703125 -0.234375q-0.390625 -0.09375 -0.75 -0.09375q-0.71875 0 -1.375 0.28125q-0.65625 0.28125 -1.15625 0.78125q-0.484375 0.484375 -0.78125 1.140625q-0.296875 0.65625 -0.296875 1.421875l0 7.734375l-2.765625 0zm19.940552 0l0 -17.5625l2.734375 0l0 17.5625l-2.734375 0zm-2.90625 -11.328125l0 -2.671875l8.90625 0l0 2.671875l-8.90625 0zm11.407837 11.328125l0 -19.71875l2.75 0l0 8.609375l-0.484375 0.3125q0.265625 -0.9375 1.03125 -1.71875q0.78125 -0.78125 1.84375 -1.265625q1.0625 -0.5 2.1875 -0.5q1.59375 0 2.65625 0.625q1.078125 0.625 1.609375 1.90625q0.53125 1.28125 0.53125 3.21875l0 8.53125l-2.75 0l0 -8.34375q0 -1.203125 -0.328125 -1.984375q-0.3125 -0.78125 -0.984375 -1.140625q-0.65625 -0.359375 -1.640625 -0.3125q-0.796875 0 -1.46875 0.25q-0.671875 0.25 -1.171875 0.703125q-0.484375 0.453125 -0.765625 1.0625q-0.265625 0.59375 -0.265625 1.28125l0 8.484375l-1.359375 0q-0.359375 0 -0.703125 0q-0.34375 0 -0.6875 0zm22.391663 0.265625q-2.15625 0 -3.828125 -0.921875q-1.671875 -0.921875 -2.625 -2.515625q-0.9375 -1.59375 -0.9375 -3.671875q0 -1.65625 0.53125 -3.015625q0.53125 -1.359375 1.484375 -2.359375q0.953125 -1.0 2.265625 -1.546875q1.3125 -0.546875 2.859375 -0.546875q1.359375 0 2.53125 0.515625q1.1875 0.515625 2.046875 1.421875q0.859375 0.90625 1.328125 2.15625q0.46875 1.234375 0.4375 2.703125l-0.015625 1.171875l-11.4375 0l-0.609375 -2.1875l9.671875 0l-0.40625 0.453125l0 -0.640625q-0.078125 -0.875 -0.59375 -1.5625q-0.5 -0.703125 -1.28125 -1.09375q-0.765625 -0.40625 -1.671875 -0.40625q-1.4375 0 -2.421875 0.546875q-0.984375 0.546875 -1.5 1.609375q-0.5 1.046875 -0.5 2.59375q0 1.453125 0.609375 2.546875q0.625 1.078125 1.734375 1.671875q1.125 0.578125 2.59375 0.578125q1.03125 0 1.921875 -0.34375q0.90625 -0.359375 1.9375 -1.265625l1.390625 1.953125q-0.640625 0.640625 -1.5625 1.125q-0.921875 0.46875 -1.953125 0.75q-1.015625 0.28125 -2.0 0.28125zm23.006104 0q-1.53125 0 -2.828125 -0.390625q-1.28125 -0.40625 -2.34375 -1.21875q-1.046875 -0.8125 -1.875 -2.015625l1.984375 -2.265625q1.296875 1.859375 2.5 2.59375q1.203125 0.71875 2.84375 0.71875q1.015625 0 1.84375 -0.3125q0.828125 -0.328125 1.296875 -0.890625q0.484375 -0.5625 0.484375 -1.28125q0 -0.484375 -0.15625 -0.90625q-0.15625 -0.421875 -0.5 -0.765625q-0.328125 -0.359375 -0.84375 -0.640625q-0.515625 -0.296875 -1.21875 -0.515625q-0.6875 -0.234375 -1.59375 -0.40625q-1.4375 -0.28125 -2.515625 -0.765625q-1.0625 -0.484375 -1.78125 -1.203125q-0.71875 -0.71875 -1.0625 -1.640625q-0.34375 -0.921875 -0.34375 -2.0625q0 -1.125 0.484375 -2.078125q0.5 -0.953125 1.359375 -1.65625q0.875 -0.71875 2.046875 -1.09375q1.171875 -0.390625 2.53125 -0.390625q1.4375 0 2.640625 0.375q1.203125 0.375 2.125 1.109375q0.9375 0.71875 1.546875 1.796875l-2.015625 2.0q-0.53125 -0.890625 -1.203125 -1.484375q-0.671875 -0.609375 -1.46875 -0.90625q-0.796875 -0.3125 -1.703125 -0.3125q-1.03125 0 -1.8125 0.328125q-0.765625 0.3125 -1.21875 0.890625q-0.4375 0.578125 -0.4375 1.34375q0 0.5625 0.21875 1.03125q0.21875 0.46875 0.65625 0.828125q0.4375 0.359375 1.171875 0.640625q0.75 0.265625 1.796875 0.484375q1.46875 0.328125 2.609375 0.828125q1.140625 0.484375 1.9375 1.15625q0.8125 0.65625 1.21875 1.484375q0.421875 0.828125 0.421875 1.78125q0 1.78125 -0.828125 3.09375q-0.828125 1.3125 -2.359375 2.015625q-1.515625 0.703125 -3.609375 0.703125zm15.086548 0q-1.5 0 -2.609375 -0.6875q-1.09375 -0.703125 -1.703125 -1.953125q-0.59375 -1.25 -0.59375 -2.984375l0 -8.640625l2.75 0l0 7.890625q0 1.234375 0.375 2.125q0.390625 0.890625 1.125 1.375q0.734375 0.484375 1.765625 0.484375q0.78125 0 1.421875 -0.25q0.640625 -0.265625 1.09375 -0.71875q0.46875 -0.453125 0.734375 -1.09375q0.28125 -0.640625 0.28125 -1.390625l0 -8.421875l2.734375 0l0 14.0l-2.734375 0l0 -2.9375l0.46875 -0.3125q-0.3125 0.984375 -1.078125 1.78125q-0.75 0.796875 -1.796875 1.265625q-1.03125 0.46875 -2.234375 0.46875zm11.220734 5.59375l0 -19.859375l2.765625 0l0 3.203125l-0.421875 -0.234375q0.15625 -0.796875 0.90625 -1.53125q0.75 -0.734375 1.828125 -1.203125q1.078125 -0.46875 2.21875 -0.46875q1.890625 0 3.359375 0.9375q1.46875 0.921875 2.3125 2.5625q0.859375 1.625 0.859375 3.71875q0 2.078125 -0.84375 3.71875q-0.828125 1.640625 -2.296875 2.59375q-1.46875 0.9375 -3.3125 0.9375q-1.21875 0 -2.375 -0.484375q-1.140625 -0.5 -1.9375 -1.265625q-0.796875 -0.78125 -0.984375 -1.609375l0.6875 -0.359375l0 9.34375l-2.765625 0zm6.921875 -8.15625q1.234375 0 2.1875 -0.609375q0.96875 -0.609375 1.515625 -1.671875q0.5625 -1.078125 0.5625 -2.4375q0 -1.359375 -0.546875 -2.40625q-0.546875 -1.046875 -1.5 -1.65625q-0.953125 -0.625 -2.21875 -0.625q-1.25 0 -2.21875 0.609375q-0.953125 0.59375 -1.515625 1.65625q-0.546875 1.0625 -0.546875 2.421875q0 1.359375 0.546875 2.4375q0.5625 1.0625 1.515625 1.671875q0.96875 0.609375 2.21875 0.609375zm16.429382 2.5625q-2.1562195 0 -3.8280945 -0.921875q-1.671875 -0.921875 -2.625 -2.515625q-0.9375 -1.59375 -0.9375 -3.671875q0 -1.65625 0.53125 -3.015625q0.53125 -1.359375 1.484375 -2.359375q0.953125 -1.0 2.265625 -1.546875q1.3124695 -0.546875 2.8593445 -0.546875q1.359375 0 2.53125 0.515625q1.1875 0.515625 2.046875 1.421875q0.859375 0.90625 1.328125 2.15625q0.46875 1.234375 0.4375 2.703125l-0.015625 1.171875l-11.4374695 0l-0.609375 -2.1875l9.6718445 0l-0.40625 0.453125l0 -0.640625q-0.078125 -0.875 -0.59375 -1.5625q-0.5 -0.703125 -1.28125 -1.09375q-0.765625 -0.40625 -1.671875 -0.40625q-1.4375 0 -2.4218445 0.546875q-0.984375 0.546875 -1.5 1.609375q-0.5 1.046875 -0.5 2.59375q0 1.453125 0.609375 2.546875q0.625 1.078125 1.734375 1.671875q1.1249695 0.578125 2.5937195 0.578125q1.03125 0 1.921875 -0.34375q0.90625 -0.359375 1.9375 -1.265625l1.390625 1.953125q-0.640625 0.640625 -1.5625 1.125q-0.921875 0.46875 -1.953125 0.75q-1.015625 0.28125 -2.0 0.28125zm9.089233 -0.265625l0 -14.0l2.765625 0l0 4.40625l-0.265625 -1.0625q0.296875 -1.015625 1.0 -1.84375q0.703125 -0.828125 1.625 -1.296875q0.921875 -0.484375 1.90625 -0.484375q0.453125 0 0.859375 0.078125q0.421875 0.078125 0.65625 0.1875l-0.71875 2.984375q-0.3125 -0.140625 -0.703125 -0.234375q-0.390625 -0.09375 -0.75 -0.09375q-0.71875 0 -1.375 0.28125q-0.65625 0.28125 -1.15625 0.78125q-0.484375 0.484375 -0.78125 1.140625q-0.296875 0.65625 -0.296875 1.421875l0 7.734375l-2.765625 0zm16.65393 0l-5.90625 -14.0l2.953125 0l4.265625 10.484375l-0.515625 0.234375l4.5625 -10.71875l2.828125 0l-6.203125 14.0l-1.984375 0zm11.148926 0l0 -14.0l2.75 0l0 14.0l-2.75 0zm1.328125 -17.09375q-0.875 0 -1.359375 -0.453125q-0.484375 -0.453125 -0.484375 -1.265625q0 -0.78125 0.5 -1.25q0.5 -0.484375 1.34375 -0.484375q0.875 0 1.359375 0.453125q0.484375 0.453125 0.484375 1.28125q0 0.765625 -0.5 1.25q-0.484375 0.46875 -1.34375 0.46875zm10.285461 17.359375q-1.75 0 -3.171875 -0.609375q-1.40625 -0.609375 -2.34375 -1.8125l1.875 -1.609375q0.796875 0.9375 1.734375 1.359375q0.953125 0.40625 2.15625 0.40625q0.46875 0 0.875 -0.109375q0.421875 -0.125 0.734375 -0.359375q0.3125 -0.25 0.46875 -0.578125q0.15625 -0.34375 0.15625 -0.734375q0 -0.703125 -0.5 -1.125q-0.265625 -0.1875 -0.84375 -0.40625q-0.578125 -0.234375 -1.484375 -0.46875q-1.546875 -0.40625 -2.53125 -0.90625q-0.984375 -0.515625 -1.515625 -1.15625q-0.40625 -0.5 -0.59375 -1.09375q-0.1875 -0.609375 -0.1875 -1.328125q0 -0.875 0.390625 -1.609375q0.390625 -0.734375 1.0625 -1.28125q0.6875 -0.546875 1.609375 -0.828125q0.921875 -0.296875 1.953125 -0.296875q0.984375 0 1.953125 0.265625q0.984375 0.265625 1.8125 0.78125q0.828125 0.5 1.375 1.1875l-1.5625 1.734375q-0.515625 -0.515625 -1.109375 -0.890625q-0.59375 -0.390625 -1.21875 -0.59375q-0.609375 -0.21875 -1.109375 -0.21875q-0.5625 0 -1.015625 0.109375q-0.453125 0.09375 -0.765625 0.3125q-0.296875 0.21875 -0.46875 0.53125q-0.15625 0.3125 -0.15625 0.71875q0.03125 0.34375 0.171875 0.65625q0.15625 0.296875 0.421875 0.515625q0.28125 0.21875 0.859375 0.453125q0.59375 0.234375 1.515625 0.453125q1.328125 0.34375 2.1875 0.765625q0.875 0.40625 1.375 0.9375q0.53125 0.515625 0.75 1.1875q0.21875 0.65625 0.21875 1.484375q0 1.203125 -0.6875 2.15625q-0.671875 0.9375 -1.828125 1.46875q-1.140625 0.53125 -2.5625 0.53125zm8.5651245 -0.265625l0 -14.0l2.75 0l0 14.0l-2.75 0zm1.328125 -17.09375q-0.875 0 -1.359375 -0.453125q-0.484375 -0.453125 -0.484375 -1.265625q0 -0.78125 0.5 -1.25q0.5 -0.484375 1.34375 -0.484375q0.875 0 1.359375 0.453125q0.484375 0.453125 0.484375 1.28125q0 0.765625 -0.5 1.25q-0.484375 0.46875 -1.34375 0.46875zm11.910461 17.359375q-2.046875 0 -3.65625 -0.9375q-1.609375 -0.953125 -2.546875 -2.59375q-0.9375 -1.640625 -0.9375 -3.75q0 -2.09375 0.9375 -3.734375q0.9375 -1.640625 2.546875 -2.578125q1.609375 -0.953125 3.65625 -0.953125q2.03125 0 3.640625 0.953125q1.625 0.9375 2.546875 2.578125q0.9375 1.640625 0.9375 3.734375q0 2.109375 -0.9375 3.75q-0.921875 1.640625 -2.546875 2.59375q-1.609375 0.9375 -3.640625 0.9375zm0 -2.5q1.265625 0 2.25 -0.625q0.984375 -0.625 1.546875 -1.703125q0.5625 -1.09375 0.53125 -2.453125q0.03125 -1.375 -0.53125 -2.453125q-0.5625 -1.09375 -1.546875 -1.703125q-0.984375 -0.609375 -2.25 -0.609375q-1.25 0 -2.25 0.625q-1.0 0.625 -1.5625 1.703125q-0.546875 1.078125 -0.53125 2.4375q-0.015625 1.359375 0.53125 2.453125q0.5625 1.078125 1.5625 1.703125q1.0 0.625 2.25 0.625zm10.112244 2.234375l0 -14.0l2.75 0l0 2.890625l-0.484375 0.3125q0.265625 -0.9375 1.03125 -1.71875q0.78125 -0.78125 1.84375 -1.265625q1.0625 -0.5 2.1875 -0.5q1.59375 0 2.65625 0.625q1.078125 0.625 1.609375 1.90625q0.53125 1.28125 0.53125 3.21875l0 8.53125l-2.75 0l0 -8.34375q0 -1.203125 -0.328125 -1.984375q-0.3125 -0.78125 -0.984375 -1.140625q-0.65625 -0.359375 -1.640625 -0.3125q-0.796875 0 -1.46875 0.25q-0.671875 0.25 -1.171875 0.703125q-0.484375 0.453125 -0.765625 1.0625q-0.265625 0.59375 -0.265625 1.28125l0 8.484375l-1.359375 0q-0.359375 0 -0.703125 0q-0.34375 0 -0.6875 0zm29.605408 0.265625q-2.046875 0 -3.65625 -0.9375q-1.609375 -0.953125 -2.546875 -2.59375q-0.9375 -1.640625 -0.9375 -3.75q0 -2.09375 0.9375 -3.734375q0.9375 -1.640625 2.546875 -2.578125q1.609375 -0.953125 3.65625 -0.953125q2.03125 0 3.640625 0.953125q1.625 0.9375 2.546875 2.578125q0.9375 1.640625 0.9375 3.734375q0 2.109375 -0.9375 3.75q-0.921875 1.640625 -2.546875 2.59375q-1.609375 0.9375 -3.640625 0.9375zm0 -2.5q1.265625 0 2.25 -0.625q0.984375 -0.625 1.546875 -1.703125q0.5625 -1.09375 0.53125 -2.453125q0.03125 -1.375 -0.53125 -2.453125q-0.5625 -1.09375 -1.546875 -1.703125q-0.984375 -0.609375 -2.25 -0.609375q-1.25 0 -2.25 0.625q-1.0 0.625 -1.5625 1.703125q-0.546875 1.078125 -0.53125 2.4375q-0.015625 1.359375 0.53125 2.453125q0.5625 1.078125 1.5625 1.703125q1.0 0.625 2.25 0.625zm11.0946045 2.234375l0 -15.5625q0 -1.203125 0.53125 -2.125q0.53125 -0.9375 1.46875 -1.46875q0.9375 -0.546875 2.15625 -0.546875q0.859375 0 1.59375 0.328125q0.75 0.3125 1.203125 0.84375l-0.921875 2.109375q-0.359375 -0.3125 -0.765625 -0.515625q-0.40625 -0.203125 -0.78125 -0.203125q-0.5625 0 -0.953125 0.171875q-0.390625 0.171875 -0.578125 0.53125q-0.1875 0.359375 -0.1875 0.875l0 15.5625l-1.375 0q-0.34375 0 -0.703125 0q-0.34375 0 -0.6875 0zm-2.234375 -11.21875l0 -2.53125l8.3125 0l0 2.53125l-8.3125 0zm19.345825 11.21875l0 -18.65625l7.59375 0q1.53125 0 2.765625 0.765625q1.234375 0.75 1.984375 2.0625q0.75 1.296875 0.75 2.90625q0 1.59375 -0.75 2.90625q-0.75 1.296875 -1.984375 2.09375q-1.234375 0.78125 -2.765625 0.78125l-4.71875 0l0 7.140625l-2.875 0zm2.875 -9.921875l4.671875 0q0.71875 0 1.296875 -0.40625q0.59375 -0.421875 0.953125 -1.09375q0.359375 -0.6875 0.359375 -1.5q0 -0.828125 -0.359375 -1.5q-0.359375 -0.671875 -0.953125 -1.0625q-0.578125 -0.40625 -1.296875 -0.40625l-4.671875 0l0 5.96875zm13.337524 9.921875l0 -14.0l2.765625 0l0 4.40625l-0.265625 -1.0625q0.296875 -1.015625 1.0 -1.84375q0.703125 -0.828125 1.625 -1.296875q0.921875 -0.484375 1.90625 -0.484375q0.453125 0 0.859375 0.078125q0.421875 0.078125 0.65625 0.1875l-0.71875 2.984375q-0.3125 -0.140625 -0.703125 -0.234375q-0.390625 -0.09375 -0.75 -0.09375q-0.71875 0 -1.375 0.28125q-0.65625 0.28125 -1.15625 0.78125q-0.484375 0.484375 -0.78125 1.140625q-0.296875 0.65625 -0.296875 1.421875l0 7.734375l-2.765625 0zm16.437012 0.265625q-2.046875 0 -3.65625 -0.9375q-1.609375 -0.953125 -2.546875 -2.59375q-0.9375 -1.640625 -0.9375 -3.75q0 -2.09375 0.9375 -3.734375q0.9375 -1.640625 2.546875 -2.578125q1.609375 -0.953125 3.65625 -0.953125q2.03125 0 3.640625 0.953125q1.625 0.9375 2.546875 2.578125q0.9375 1.640625 0.9375 3.734375q0 2.109375 -0.9375 3.75q-0.921875 1.640625 -2.546875 2.59375q-1.609375 0.9375 -3.640625 0.9375zm0 -2.5q1.265625 0 2.25 -0.625q0.984375 -0.625 1.546875 -1.703125q0.5625 -1.09375 0.53125 -2.453125q0.03125 -1.375 -0.53125 -2.453125q-0.5625 -1.09375 -1.546875 -1.703125q-0.984375 -0.609375 -2.25 -0.609375q-1.25 0 -2.25 0.625q-1.0 0.625 -1.5625 1.703125q-0.546875 1.078125 -0.53125 2.4375q-0.015625 1.359375 0.53125 2.453125q0.5625 1.078125 1.5625 1.703125q1.0 0.625 2.25 0.625zm11.094543 2.234375l0 -15.5625q0 -1.203125 0.53125 -2.125q0.53125 -0.9375 1.46875 -1.46875q0.9375 -0.546875 2.15625 -0.546875q0.859375 0 1.59375 0.328125q0.75 0.3125 1.203125 0.84375l-0.921875 2.109375q-0.359375 -0.3125 -0.765625 -0.515625q-0.40625 -0.203125 -0.78125 -0.203125q-0.5625 0 -0.953125 0.171875q-0.390625 0.171875 -0.578125 0.53125q-0.1875 0.359375 -0.1875 0.875l0 15.5625l-1.375 0q-0.34375 0 -0.703125 0q-0.34375 0 -0.6875 0zm-2.234375 -11.21875l0 -2.53125l8.3125 0l0 2.53125l-8.3125 0zm12.304016 11.515625q-0.875 0 -1.359375 -0.515625q-0.46875 -0.53125 -0.46875 -1.484375q0 -0.875 0.5 -1.4375q0.515625 -0.5625 1.328125 -0.5625q0.890625 0 1.359375 0.515625q0.484375 0.515625 0.484375 1.484375q0 0.875 -0.515625 1.4375q-0.5 0.5625 -1.328125 0.5625zm13.119446 -0.296875l0 -18.65625l2.875 0l0 18.65625l-2.875 0zm1.28125 -7.9375l0 -2.78125l9.625 0l0 2.78125l-9.625 0zm0 -7.953125l0 -2.765625l10.828125 0l0 2.765625l-10.828125 0zm19.053223 16.15625q-1.71875 0 -3.15625 -0.953125q-1.421875 -0.96875 -2.28125 -2.609375q-0.84375 -1.65625 -0.84375 -3.734375q0 -2.109375 0.859375 -3.75q0.875 -1.640625 2.34375 -2.5625q1.484375 -0.9375 3.328125 -0.9375q1.09375 0 2.0 0.328125q0.90625 0.3125 1.578125 0.890625q0.6875 0.5625 1.125 1.3125q0.4375 0.734375 0.546875 1.59375l-0.609375 -0.21875l0 -3.625l2.765625 0l0 14.0l-2.765625 0l0 -3.328125l0.640625 -0.1875q-0.171875 0.71875 -0.671875 1.40625q-0.484375 0.671875 -1.25 1.203125q-0.75 0.53125 -1.671875 0.859375q-0.921875 0.3125 -1.9375 0.3125zm0.734375 -2.53125q1.25 0 2.203125 -0.609375q0.96875 -0.609375 1.5 -1.6875q0.546875 -1.09375 0.546875 -2.46875q0 -1.359375 -0.546875 -2.421875q-0.53125 -1.078125 -1.5 -1.6875q-0.953125 -0.609375 -2.203125 -0.609375q-1.234375 0 -2.1875 0.609375q-0.9375 0.609375 -1.484375 1.6875q-0.546875 1.0625 -0.546875 2.421875q0 1.375 0.546875 2.46875q0.546875 1.078125 1.484375 1.6875q0.953125 0.609375 2.1875 0.609375zm10.763977 2.265625l0 -14.0l2.765625 0l0 4.40625l-0.265625 -1.0625q0.296875 -1.015625 1.0 -1.84375q0.703125 -0.828125 1.625 -1.296875q0.921875 -0.484375 1.90625 -0.484375q0.453125 0 0.859375 0.078125q0.421875 0.078125 0.65625 0.1875l-0.71875 2.984375q-0.3125 -0.140625 -0.703125 -0.234375q-0.390625 -0.09375 -0.75 -0.09375q-0.71875 0 -1.375 0.28125q-0.65625 0.28125 -1.15625 0.78125q-0.484375 0.484375 -0.78125 1.140625q-0.296875 0.65625 -0.296875 1.421875l0 7.734375l-2.765625 0zm15.398682 0.265625q-1.75 0 -3.171875 -0.609375q-1.40625 -0.609375 -2.34375 -1.8125l1.875 -1.609375q0.796875 0.9375 1.734375 1.359375q0.953125 0.40625 2.15625 0.40625q0.46875 0 0.875 -0.109375q0.421875 -0.125 0.734375 -0.359375q0.3125 -0.25 0.46875 -0.578125q0.15625 -0.34375 0.15625 -0.734375q0 -0.703125 -0.5 -1.125q-0.265625 -0.1875 -0.84375 -0.40625q-0.578125 -0.234375 -1.484375 -0.46875q-1.546875 -0.40625 -2.53125 -0.90625q-0.984375 -0.515625 -1.515625 -1.15625q-0.40625 -0.5 -0.59375 -1.09375q-0.1875 -0.609375 -0.1875 -1.328125q0 -0.875 0.390625 -1.609375q0.390625 -0.734375 1.0625 -1.28125q0.6875 -0.546875 1.609375 -0.828125q0.921875 -0.296875 1.953125 -0.296875q0.984375 0 1.953125 0.265625q0.984375 0.265625 1.8125 0.78125q0.828125 0.5 1.375 1.1875l-1.5625 1.734375q-0.515625 -0.515625 -1.109375 -0.890625q-0.59375 -0.390625 -1.21875 -0.59375q-0.609375 -0.21875 -1.109375 -0.21875q-0.5625 0 -1.015625 0.109375q-0.453125 0.09375 -0.765625 0.3125q-0.296875 0.21875 -0.46875 0.53125q-0.15625 0.3125 -0.15625 0.71875q0.03125 0.34375 0.171875 0.65625q0.15625 0.296875 0.421875 0.515625q0.28125 0.21875 0.859375 0.453125q0.59375 0.234375 1.515625 0.453125q1.328125 0.34375 2.1875 0.765625q0.875 0.40625 1.375 0.9375q0.53125 0.515625 0.75 1.1875q0.21875 0.65625 0.21875 1.484375q0 1.203125 -0.6875 2.15625q-0.671875 0.9375 -1.828125 1.46875q-1.140625 0.53125 -2.5625 0.53125zm8.112061 -0.265625l0 -19.71875l2.75 0l0 8.609375l-0.484375 0.3125q0.265625 -0.9375 1.03125 -1.71875q0.78125 -0.78125 1.84375 -1.265625q1.0625 -0.5 2.1875 -0.5q1.59375 0 2.65625 0.625q1.078125 0.625 1.609375 1.90625q0.53125 1.28125 0.53125 3.21875l0 8.53125l-2.75 0l0 -8.34375q0 -1.203125 -0.328125 -1.984375q-0.3125 -0.78125 -0.984375 -1.140625q-0.65625 -0.359375 -1.640625 -0.3125q-0.796875 0 -1.46875 0.25q-0.671875 0.25 -1.171875 0.703125q-0.484375 0.453125 -0.765625 1.0625q-0.265625 0.59375 -0.265625 1.28125l0 8.484375l-1.359375 0q-0.359375 0 -0.703125 0q-0.34375 0 -0.6875 0zm21.235413 0.265625q-1.71875 0 -3.15625 -0.953125q-1.421875 -0.96875 -2.28125 -2.609375q-0.84375 -1.65625 -0.84375 -3.734375q0 -2.109375 0.859375 -3.75q0.875 -1.640625 2.34375 -2.5625q1.484375 -0.9375 3.328125 -0.9375q1.09375 0 2.0 0.328125q0.90625 0.3125 1.578125 0.890625q0.6875 0.5625 1.125 1.3125q0.4375 0.734375 0.546875 1.59375l-0.609375 -0.21875l0 -3.625l2.765625 0l0 14.0l-2.765625 0l0 -3.328125l0.640625 -0.1875q-0.171875 0.71875 -0.671875 1.40625q-0.484375 0.671875 -1.25 1.203125q-0.75 0.53125 -1.671875 0.859375q-0.921875 0.3125 -1.9375 0.3125zm0.734375 -2.53125q1.25 0 2.203125 -0.609375q0.96875 -0.609375 1.5 -1.6875q0.546875 -1.09375 0.546875 -2.46875q0 -1.359375 -0.546875 -2.421875q-0.53125 -1.078125 -1.5 -1.6875q-0.953125 -0.609375 -2.203125 -0.609375q-1.234375 0 -2.1875 0.609375q-0.9375 0.609375 -1.484375 1.6875q-0.546875 1.0625 -0.546875 2.421875q0 1.375 0.546875 2.46875q0.546875 1.078125 1.484375 1.6875q0.953125 0.609375 2.1875 0.609375zm16.592102 2.53125q-1.90625 0 -3.421875 -0.9375q-1.5 -0.953125 -2.390625 -2.59375q-0.875 -1.640625 -0.875 -3.75q0 -2.09375 0.859375 -3.734375q0.875 -1.640625 2.359375 -2.578125q1.5 -0.953125 3.390625 -0.953125q1.046875 0 2.015625 0.328125q0.96875 0.328125 1.734375 0.90625q0.78125 0.578125 1.21875 1.265625q0.453125 0.671875 0.453125 1.359375l-0.8125 0.046875l0 -9.34375l2.75 0l0 19.71875l-2.75 0l0 -3.328125l0.546875 0q0 0.640625 -0.4375 1.265625q-0.421875 0.625 -1.125 1.15625q-0.703125 0.53125 -1.625 0.859375q-0.921875 0.3125 -1.890625 0.3125zm0.375 -2.375q1.265625 0 2.21875 -0.640625q0.953125 -0.640625 1.5 -1.734375q0.546875 -1.109375 0.546875 -2.53125q0 -1.40625 -0.546875 -2.515625q-0.546875 -1.109375 -1.5 -1.75q-0.953125 -0.640625 -2.21875 -0.640625q-1.25 0 -2.21875 0.640625q-0.953125 0.640625 -1.5 1.75q-0.546875 1.109375 -0.546875 2.515625q0 1.421875 0.546875 2.53125q0.546875 1.09375 1.5 1.734375q0.96875 0.640625 2.21875 0.640625zm21.254333 -3.546875l-0.171875 -3.21875l9.796875 -9.78125l3.78125 0l-13.40625 13.0zm-2.40625 5.65625l0 -18.65625l2.875 0l0 18.65625l-2.875 0zm12.375 0l-7.140625 -9.546875l2.125 -1.828125l8.609375 11.375l-3.59375 0zm6.449768 0l0 -19.71875l2.75 0l0 8.609375l-0.484375 0.3125q0.265625 -0.9375 1.03125 -1.71875q0.78125 -0.78125 1.84375 -1.265625q1.0625 -0.5 2.1875 -0.5q1.59375 0 2.65625 0.625q1.078125 0.625 1.609375 1.90625q0.53125 1.28125 0.53125 3.21875l0 8.53125l-2.75 0l0 -8.34375q0 -1.203125 -0.328125 -1.984375q-0.3125 -0.78125 -0.984375 -1.140625q-0.65625 -0.359375 -1.640625 -0.3125q-0.796875 0 -1.46875 0.25q-0.671875 0.25 -1.171875 0.703125q-0.484375 0.453125 -0.765625 1.0625q-0.265625 0.59375 -0.265625 1.28125l0 8.484375l-1.359375 0q-0.359375 0 -0.703125 0q-0.34375 0 -0.6875 0zm20.766663 0.265625q-1.5 0 -2.609375 -0.6875q-1.09375 -0.703125 -1.703125 -1.953125q-0.59375 -1.25 -0.59375 -2.984375l0 -8.640625l2.75 0l0 7.890625q0 1.234375 0.375 2.125q0.390625 0.890625 1.125 1.375q0.734375 0.484375 1.765625 0.484375q0.78125 0 1.421875 -0.25q0.640625 -0.265625 1.09375 -0.71875q0.46875 -0.453125 0.734375 -1.09375q0.28125 -0.640625 0.28125 -1.390625l0 -8.421875l2.734375 0l0 14.0l-2.734375 0l0 -2.9375l0.46875 -0.3125q-0.3125 0.984375 -1.078125 1.78125q-0.75 0.796875 -1.796875 1.265625q-1.03125 0.46875 -2.234375 0.46875zm11.220703 -0.265625l0 -14.0l2.75 0l0 2.890625l-0.484375 0.3125q0.265625 -0.9375 1.03125 -1.71875q0.78125 -0.78125 1.84375 -1.265625q1.0625 -0.5 2.1875 -0.5q1.59375 0 2.65625 0.625q1.078125 0.625 1.609375 1.90625q0.53125 1.28125 0.53125 3.21875l0 8.53125l-2.75 0l0 -8.34375q0 -1.203125 -0.328125 -1.984375q-0.3125 -0.78125 -0.984375 -1.140625q-0.65625 -0.359375 -1.640625 -0.3125q-0.796875 0 -1.46875 0.25q-0.671875 0.25 -1.171875 0.703125q-0.484375 0.453125 -0.765625 1.0625q-0.265625 0.59375 -0.265625 1.28125l0 8.484375l-1.359375 0q-0.359375 0 -0.703125 0q-0.34375 0 -0.6875 0zm15.344788 -6.265625l0 -2.71875l7.6875 0l0 2.71875l-7.6875 0zm9.330627 11.515625l-1.03125 -2.109375q1.03125 0 1.703125 -0.359375q0.6875 -0.359375 1.03125 -1.0625q0.359375 -0.703125 0.359375 -1.75l0 -13.96875l2.734375 0l0 14.640625q0 1.359375 -0.59375 2.390625q-0.59375 1.046875 -1.6875 1.625q-1.078125 0.59375 -2.515625 0.59375zm3.5 -22.34375q-0.875 0 -1.359375 -0.453125q-0.484375 -0.453125 -0.484375 -1.265625q0 -0.78125 0.484375 -1.25q0.5 -0.484375 1.359375 -0.484375q0.875 0 1.359375 0.453125q0.484375 0.453125 0.484375 1.28125q0 0.765625 -0.5 1.25q-0.5 0.46875 -1.34375 0.46875zm10.157654 17.359375q-1.5 0 -2.609375 -0.6875q-1.09375 -0.703125 -1.703125 -1.953125q-0.59375 -1.25 -0.59375 -2.984375l0 -8.640625l2.75 0l0 7.890625q0 1.234375 0.375 2.125q0.390625 0.890625 1.125 1.375q0.734375 0.484375 1.765625 0.484375q0.78125 0 1.421875 -0.25q0.640625 -0.265625 1.09375 -0.71875q0.46875 -0.453125 0.734375 -1.09375q0.28125 -0.640625 0.28125 -1.390625l0 -8.421875l2.734375 0l0 14.0l-2.734375 0l0 -2.9375l0.46875 -0.3125q-0.3125 0.984375 -1.078125 1.78125q-0.75 0.796875 -1.796875 1.265625q-1.03125 0.46875 -2.234375 0.46875zm15.876953 0q-1.75 0 -3.171875 -0.609375q-1.40625 -0.609375 -2.34375 -1.8125l1.875 -1.609375q0.796875 0.9375 1.734375 1.359375q0.953125 0.40625 2.15625 0.40625q0.46875 0 0.875 -0.109375q0.421875 -0.125 0.734375 -0.359375q0.3125 -0.25 0.46875 -0.578125q0.15625 -0.34375 0.15625 -0.734375q0 -0.703125 -0.5 -1.125q-0.265625 -0.1875 -0.84375 -0.40625q-0.578125 -0.234375 -1.484375 -0.46875q-1.546875 -0.40625 -2.53125 -0.90625q-0.984375 -0.515625 -1.515625 -1.15625q-0.40625 -0.5 -0.59375 -1.09375q-0.1875 -0.609375 -0.1875 -1.328125q0 -0.875 0.390625 -1.609375q0.390625 -0.734375 1.0625 -1.28125q0.6875 -0.546875 1.609375 -0.828125q0.921875 -0.296875 1.953125 -0.296875q0.984375 0 1.953125 0.265625q0.984375 0.265625 1.8125 0.78125q0.828125 0.5 1.375 1.1875l-1.5625 1.734375q-0.515625 -0.515625 -1.109375 -0.890625q-0.59375 -0.390625 -1.21875 -0.59375q-0.609375 -0.21875 -1.109375 -0.21875q-0.5625 0 -1.015625 0.109375q-0.453125 0.09375 -0.765625 0.3125q-0.296875 0.21875 -0.46875 0.53125q-0.15625 0.3125 -0.15625 0.71875q0.03125 0.34375 0.171875 0.65625q0.15625 0.296875 0.421875 0.515625q0.28125 0.21875 0.859375 0.453125q0.59375 0.234375 1.515625 0.453125q1.328125 0.34375 2.1875 0.765625q0.875 0.40625 1.375 0.9375q0.53125 0.515625 0.75 1.1875q0.21875 0.65625 0.21875 1.484375q0 1.203125 -0.6875 2.15625q-0.671875 0.9375 -1.828125 1.46875q-1.140625 0.53125 -2.5625 0.53125zm8.112061 -0.265625l0 -19.71875l2.75 0l0 8.609375l-0.484375 0.3125q0.265625 -0.9375 1.03125 -1.71875q0.78125 -0.78125 1.84375 -1.265625q1.0625 -0.5 2.1875 -0.5q1.59375 0 2.65625 0.625q1.078125 0.625 1.609375 1.90625q0.53125 1.28125 0.53125 3.21875l0 8.53125l-2.75 0l0 -8.34375q0 -1.203125 -0.328125 -1.984375q-0.3125 -0.78125 -0.984375 -1.140625q-0.65625 -0.359375 -1.640625 -0.3125q-0.796875 0 -1.46875 0.25q-0.671875 0.25 -1.171875 0.703125q-0.484375 0.453125 -0.765625 1.0625q-0.265625 0.59375 -0.265625 1.28125l0 8.484375l-1.359375 0q-0.359375 0 -0.703125 0q-0.34375 0 -0.6875 0z" fill-rule="nonzero"/><path fill="#000000" d="m567.1523 493.55643q-1.453125 0 -2.671875 -0.515625q-1.203125 -0.515625 -2.109375 -1.484375q-0.890625 -0.96875 -1.375 -2.28125q-0.484375 -1.3125 -0.484375 -2.890625q0 -1.484375 0.53125 -2.765625q0.53125 -1.28125 1.453125 -2.25q0.9375 -0.984375 2.171875 -1.515625q1.234375 -0.546875 2.671875 -0.546875q1.015625 0 1.96875 0.3125q0.96875 0.3125 1.75 0.859375q0.796875 0.546875 1.296875 1.234375l-1.4375 1.5q-0.578125 -0.578125 -1.171875 -0.96875q-0.578125 -0.390625 -1.1875 -0.578125q-0.609375 -0.203125 -1.21875 -0.203125q-0.984375 0 -1.828125 0.375q-0.84375 0.359375 -1.46875 1.015625q-0.625 0.65625 -0.984375 1.5625q-0.359375 0.90625 -0.359375 1.96875q0 1.140625 0.34375 2.0625q0.359375 0.921875 0.984375 1.578125q0.640625 0.65625 1.515625 1.015625q0.890625 0.34375 1.96875 0.34375q0.65625 0 1.296875 -0.171875q0.640625 -0.1875 1.1875 -0.515625q0.5625 -0.34375 1.015625 -0.8125l1.078125 1.765625q-0.453125 0.53125 -1.25 0.96875q-0.78125 0.4375 -1.75 0.6875q-0.953125 0.25 -1.9375 0.25zm12.161926 0q-1.140625 0 -2.109375 -0.296875q-0.953125 -0.296875 -1.75 -0.90625q-0.78125 -0.609375 -1.390625 -1.5l1.46875 -1.703125q0.96875 1.40625 1.859375 1.9375q0.90625 0.53125 2.140625 0.53125q0.75 0 1.359375 -0.234375q0.625 -0.234375 0.984375 -0.65625q0.359375 -0.421875 0.359375 -0.953125q0 -0.359375 -0.125 -0.671875q-0.109375 -0.328125 -0.359375 -0.578125q-0.25 -0.265625 -0.640625 -0.484375q-0.390625 -0.21875 -0.90625 -0.390625q-0.515625 -0.171875 -1.1875 -0.28125q-1.078125 -0.21875 -1.875 -0.578125q-0.796875 -0.359375 -1.34375 -0.890625q-0.53125 -0.546875 -0.796875 -1.234375q-0.25 -0.6875 -0.25 -1.53125q0 -0.84375 0.359375 -1.546875q0.375 -0.71875 1.015625 -1.25q0.65625 -0.53125 1.53125 -0.8125q0.875 -0.296875 1.890625 -0.296875q1.078125 0 1.96875 0.28125q0.890625 0.28125 1.578125 0.828125q0.703125 0.546875 1.171875 1.34375l-1.515625 1.484375q-0.40625 -0.65625 -0.90625 -1.09375q-0.484375 -0.453125 -1.09375 -0.671875q-0.59375 -0.234375 -1.265625 -0.234375q-0.765625 0 -1.34375 0.234375q-0.578125 0.234375 -0.90625 0.671875q-0.328125 0.421875 -0.328125 1.0q0 0.421875 0.15625 0.765625q0.15625 0.34375 0.484375 0.625q0.328125 0.265625 0.875 0.46875q0.5625 0.203125 1.34375 0.359375q1.09375 0.25 1.9375 0.625q0.859375 0.359375 1.453125 0.859375q0.609375 0.484375 0.90625 1.109375q0.3125 0.609375 0.3125 1.328125q0 1.34375 -0.625 2.3125q-0.609375 0.96875 -1.75 1.5q-1.125 0.53125 -2.6875 0.53125zm8.114807 -0.203125l0 -13.921875l8.765625 0l0 2.0625l-6.625 0l0 9.796875l6.625 0l0 2.0625l-8.765625 0zm0.96875 -6.109375l0 -2.0625l6.703125 0l0 2.0625l-6.703125 0zm16.813416 6.109375l0 -13.921875l5.453125 0q1.484375 0 2.6875 0.5q1.203125 0.5 2.0625 1.4375q0.859375 0.921875 1.3125 2.203125q0.453125 1.265625 0.453125 2.8125q0 1.5625 -0.453125 2.84375q-0.453125 1.28125 -1.3125 2.203125q-0.84375 0.921875 -2.0625 1.421875q-1.203125 0.5 -2.6875 0.5l-5.453125 0zm2.140625 -1.84375l-0.0625 -0.21875l3.265625 0q1.0625 0 1.875 -0.34375q0.828125 -0.34375 1.390625 -0.96875q0.578125 -0.625 0.875 -1.53125q0.296875 -0.921875 0.296875 -2.0625q0 -1.125 -0.296875 -2.03125q-0.296875 -0.90625 -0.875 -1.53125q-0.578125 -0.640625 -1.390625 -0.984375q-0.8125 -0.34375 -1.875 -0.34375l-3.3125 0l0.109375 -0.171875l0 10.1875zm17.096863 2.046875q-1.625 0 -2.875 -0.6875q-1.234375 -0.6875 -1.9375 -1.875q-0.703125 -1.203125 -0.703125 -2.75q0 -1.234375 0.390625 -2.25q0.40625 -1.015625 1.109375 -1.75q0.703125 -0.75 1.6875 -1.15625q0.984375 -0.421875 2.140625 -0.421875q1.015625 0 1.890625 0.390625q0.875 0.390625 1.515625 1.078125q0.65625 0.671875 1.0 1.59375q0.34375 0.921875 0.328125 2.015625l-0.015625 0.875l-8.53125 0l-0.46875 -1.625l7.21875 0l-0.296875 0.328125l0 -0.46875q-0.046875 -0.65625 -0.4375 -1.171875q-0.375 -0.515625 -0.953125 -0.8125q-0.578125 -0.3125 -1.25 -0.3125q-1.078125 0 -1.8125 0.421875q-0.734375 0.40625 -1.109375 1.1875q-0.375 0.78125 -0.375 1.9375q0 1.09375 0.453125 1.90625q0.453125 0.796875 1.28125 1.234375q0.84375 0.4375 1.9375 0.4375q0.78125 0 1.4375 -0.25q0.671875 -0.265625 1.453125 -0.9375l1.03125 1.453125q-0.484375 0.46875 -1.171875 0.828125q-0.671875 0.359375 -1.4375 0.578125q-0.765625 0.203125 -1.5 0.203125zm6.7808228 4.171875l0 -14.8125l2.0625 0l0 2.375l-0.3125 -0.171875q0.109375 -0.59375 0.671875 -1.140625q0.5625 -0.546875 1.359375 -0.890625q0.8125 -0.359375 1.65625 -0.359375q1.421875 0 2.515625 0.703125q1.09375 0.6875 1.71875 1.90625q0.640625 1.21875 0.640625 2.78125q0 1.546875 -0.625 2.78125q-0.625 1.21875 -1.71875 1.921875q-1.09375 0.703125 -2.46875 0.703125q-0.90625 0 -1.765625 -0.359375q-0.859375 -0.375 -1.453125 -0.9375q-0.59375 -0.578125 -0.734375 -1.203125l0.515625 -0.28125l0 6.984375l-2.0625 0zm5.171875 -6.078125q0.90625 0 1.625 -0.453125q0.71875 -0.46875 1.125 -1.265625q0.421875 -0.796875 0.421875 -1.8125q0 -1.015625 -0.40625 -1.796875q-0.40625 -0.78125 -1.125 -1.234375q-0.71875 -0.46875 -1.640625 -0.46875q-0.9375 0 -1.65625 0.453125q-0.71875 0.4375 -1.140625 1.234375q-0.40625 0.796875 -0.40625 1.8125q0 1.015625 0.40625 1.8125q0.421875 0.796875 1.140625 1.265625q0.71875 0.453125 1.65625 0.453125zm11.394714 1.90625q-1.296875 0 -2.359375 -0.71875q-1.0625 -0.71875 -1.703125 -1.953125q-0.640625 -1.234375 -0.640625 -2.78125q0 -1.578125 0.640625 -2.796875q0.65625 -1.21875 1.75 -1.90625q1.109375 -0.703125 2.484375 -0.703125q0.8125 0 1.484375 0.234375q0.6875 0.234375 1.1875 0.671875q0.515625 0.421875 0.84375 0.984375q0.328125 0.546875 0.40625 1.1875l-0.453125 -0.15625l0 -2.703125l2.0625 0l0 10.4375l-2.0625 0l0 -2.484375l0.46875 -0.140625q-0.109375 0.53125 -0.484375 1.046875q-0.359375 0.5 -0.9375 0.90625q-0.5625 0.390625 -1.25 0.640625q-0.6875 0.234375 -1.4375 0.234375zm0.53125 -1.890625q0.9375 0 1.65625 -0.453125q0.71875 -0.46875 1.125 -1.265625q0.40625 -0.8125 0.40625 -1.84375q0 -1.015625 -0.40625 -1.8125q-0.40625 -0.796875 -1.125 -1.25q-0.71875 -0.453125 -1.65625 -0.453125q-0.90625 0 -1.625 0.453125q-0.703125 0.453125 -1.109375 1.25q-0.40625 0.796875 -0.40625 1.8125q0 1.03125 0.40625 1.84375q0.40625 0.796875 1.109375 1.265625q0.71875 0.453125 1.625 0.453125zm8.043823 1.6875l0 -10.4375l2.0625 0l0 3.28125l-0.203125 -0.796875q0.21875 -0.765625 0.75 -1.375q0.53125 -0.609375 1.21875 -0.96875q0.6875 -0.359375 1.421875 -0.359375q0.328125 0 0.640625 0.0625q0.3125 0.046875 0.484375 0.125l-0.53125 2.234375q-0.234375 -0.09375 -0.53125 -0.15625q-0.28125 -0.078125 -0.5625 -0.078125q-0.53125 0 -1.03125 0.203125q-0.484375 0.203125 -0.859375 0.578125q-0.359375 0.375 -0.578125 0.859375q-0.21875 0.484375 -0.21875 1.0625l0 5.765625l-2.0625 0zm9.695007 0l0 -13.109375l2.0625 0l0 13.109375l-2.0625 0zm-2.15625 -8.453125l0 -1.984375l6.640625 0l0 1.984375l-6.640625 0zm8.466064 8.453125l0 -10.4375l2.078125 0l0 2.21875l-0.390625 0.25q0.15625 -0.53125 0.5 -1.0q0.359375 -0.484375 0.859375 -0.84375q0.515625 -0.375 1.09375 -0.59375q0.59375 -0.21875 1.21875 -0.21875q0.890625 0 1.5625 0.296875q0.671875 0.296875 1.109375 0.90625q0.4375 0.59375 0.640625 1.484375l-0.3125 -0.078125l0.140625 -0.34375q0.21875 -0.453125 0.59375 -0.859375q0.390625 -0.40625 0.890625 -0.71875q0.5 -0.328125 1.046875 -0.5q0.5625 -0.1875 1.109375 -0.1875q1.171875 0 1.9375 0.484375q0.765625 0.46875 1.140625 1.453125q0.390625 0.96875 0.390625 2.421875l0 6.265625l-2.0625 0l0 -6.140625q0 -0.90625 -0.234375 -1.46875q-0.21875 -0.5625 -0.6875 -0.84375q-0.453125 -0.28125 -1.171875 -0.28125q-0.546875 0 -1.046875 0.1875q-0.484375 0.1875 -0.84375 0.53125q-0.34375 0.34375 -0.546875 0.796875q-0.203125 0.4375 -0.203125 0.96875l0 6.25l-2.0625 0l0 -6.1875q0 -0.8125 -0.25 -1.375q-0.234375 -0.578125 -0.6875 -0.875q-0.453125 -0.296875 -1.109375 -0.296875q-0.5625 0 -1.046875 0.1875q-0.46875 0.1875 -0.828125 0.515625q-0.359375 0.328125 -0.5625 0.78125q-0.1875 0.453125 -0.1875 0.96875l0 6.28125l-2.078125 0zm23.241089 0.203125q-1.625 0 -2.875 -0.6875q-1.234375 -0.6875 -1.9375 -1.875q-0.703125 -1.203125 -0.703125 -2.75q0 -1.234375 0.390625 -2.25q0.40625 -1.015625 1.109375 -1.75q0.703125 -0.75 1.6875 -1.15625q0.984375 -0.421875 2.140625 -0.421875q1.015625 0 1.890625 0.390625q0.875 0.390625 1.515625 1.078125q0.65625 0.671875 1.0 1.59375q0.34375 0.921875 0.328125 2.015625l-0.015625 0.875l-8.53125 0l-0.46875 -1.625l7.21875 0l-0.296875 0.328125l0 -0.46875q-0.046875 -0.65625 -0.4375 -1.171875q-0.375 -0.515625 -0.953125 -0.8125q-0.578125 -0.3125 -1.25 -0.3125q-1.078125 0 -1.8125 0.421875q-0.734375 0.40625 -1.109375 1.1875q-0.375 0.78125 -0.375 1.9375q0 1.09375 0.453125 1.90625q0.453125 0.796875 1.28125 1.234375q0.84375 0.4375 1.9375 0.4375q0.78125 0 1.4375 -0.25q0.671875 -0.265625 1.453125 -0.9375l1.03125 1.453125q-0.484375 0.46875 -1.171875 0.828125q-0.671875 0.359375 -1.4375 0.578125q-0.765625 0.203125 -1.5 0.203125zm6.7808228 -0.203125l0 -10.4375l2.046875 0l0 2.140625l-0.359375 0.234375q0.203125 -0.6875 0.765625 -1.265625q0.578125 -0.59375 1.375 -0.953125q0.796875 -0.375 1.640625 -0.375q1.1875 0 1.984375 0.46875q0.796875 0.46875 1.1875 1.421875q0.40625 0.953125 0.40625 2.40625l0 6.359375l-2.046875 0l0 -6.21875q0 -0.90625 -0.25 -1.484375q-0.234375 -0.59375 -0.734375 -0.859375q-0.484375 -0.265625 -1.234375 -0.234375q-0.59375 0 -1.09375 0.203125q-0.484375 0.1875 -0.859375 0.53125q-0.359375 0.328125 -0.578125 0.78125q-0.203125 0.4375 -0.203125 0.953125l0 6.328125l-1.015625 0q-0.265625 0 -0.53125 0q-0.25 0 -0.5 0zm13.11615 0l0 -13.109375l2.0625 0l0 13.109375l-2.0625 0zm-2.15625 -8.453125l0 -1.984375l6.640625 0l0 1.984375l-6.640625 0z" fill-rule="nonzero"/><path fill="#000000" d="m565.1223 533.14703q-1.140625 0 -2.109375 -0.296875q-0.953125 -0.296875 -1.75 -0.90625q-0.78125 -0.609375 -1.390625 -1.5l1.46875 -1.703125q0.96875 1.40625 1.859375 1.9375q0.90625 0.53125 2.140625 0.53125q0.75 0 1.359375 -0.234375q0.625 -0.234375 0.984375 -0.65625q0.359375 -0.421875 0.359375 -0.953125q0 -0.359375 -0.125 -0.671875q-0.109375 -0.328125 -0.359375 -0.578125q-0.25 -0.265625 -0.640625 -0.484375q-0.390625 -0.21875 -0.90625 -0.390625q-0.515625 -0.171875 -1.1875 -0.28125q-1.078125 -0.21875 -1.875 -0.578125q-0.796875 -0.359375 -1.34375 -0.890625q-0.53125 -0.546875 -0.796875 -1.234375q-0.25 -0.6875 -0.25 -1.53125q0 -0.84375 0.359375 -1.546875q0.375 -0.71875 1.015625 -1.25q0.65625 -0.53125 1.53125 -0.8125q0.875 -0.296875 1.890625 -0.296875q1.078125 0 1.96875 0.28125q0.890625 0.28125 1.578125 0.828125q0.703125 0.546875 1.171875 1.34375l-1.515625 1.484375q-0.40625 -0.65625 -0.90625 -1.09375q-0.484375 -0.453125 -1.09375 -0.671875q-0.59375 -0.234375 -1.265625 -0.234375q-0.765625 0 -1.34375 0.234375q-0.578125 0.234375 -0.90625 0.671875q-0.328125 0.421875 -0.328125 1.0q0 0.421875 0.15625 0.765625q0.15625 0.34375 0.484375 0.625q0.328125 0.265625 0.875 0.46875q0.5625 0.203125 1.34375 0.359375q1.09375 0.25 1.9375 0.625q0.859375 0.359375 1.453125 0.859375q0.609375 0.484375 0.90625 1.109375q0.3125 0.609375 0.3125 1.328125q0 1.34375 -0.625 2.3125q-0.609375 0.96875 -1.75 1.5q-1.125 0.53125 -2.6875 0.53125zm7.599182 -0.203125l0 -14.71875l2.046875 0l0 6.421875l-0.359375 0.234375q0.203125 -0.6875 0.765625 -1.265625q0.578125 -0.59375 1.375 -0.953125q0.796875 -0.375 1.640625 -0.375q1.1875 0 1.984375 0.46875q0.796875 0.46875 1.1875 1.421875q0.40625 0.953125 0.40625 2.40625l0 6.359375l-2.046875 0l0 -6.21875q0 -0.90625 -0.25 -1.484375q-0.234375 -0.59375 -0.734375 -0.859375q-0.484375 -0.265625 -1.234375 -0.234375q-0.59375 0 -1.09375 0.203125q-0.484375 0.1875 -0.859375 0.53125q-0.359375 0.328125 -0.578125 0.78125q-0.203125 0.4375 -0.203125 0.953125l0 6.328125l-1.015625 0q-0.265625 0 -0.53125 0q-0.25 0 -0.5 0zm12.163025 0l0 -10.4375l2.046875 0l0 10.4375l-2.046875 0zm1.0 -12.75q-0.65625 0 -1.015625 -0.328125q-0.359375 -0.34375 -0.359375 -0.96875q0 -0.578125 0.359375 -0.921875q0.375 -0.359375 1.015625 -0.359375q0.65625 0 1.015625 0.34375q0.359375 0.328125 0.359375 0.9375q0 0.578125 -0.375 0.9375q-0.359375 0.359375 -1.0 0.359375zm4.201416 12.75l0 -10.4375l2.0625 0l0 3.28125l-0.203125 -0.796875q0.21875 -0.765625 0.75 -1.375q0.53125 -0.609375 1.21875 -0.96875q0.6875 -0.359375 1.421875 -0.359375q0.328125 0 0.640625 0.0625q0.3125 0.046875 0.484375 0.125l-0.53125 2.234375q-0.234375 -0.09375 -0.53125 -0.15625q-0.28125 -0.078125 -0.5625 -0.078125q-0.53125 0 -1.03125 0.203125q-0.484375 0.203125 -0.859375 0.578125q-0.359375 0.375 -0.578125 0.859375q-0.21875 0.484375 -0.21875 1.0625l0 5.765625l-2.0625 0zm11.593933 0.203125q-1.296875 0 -2.359375 -0.71875q-1.0625 -0.71875 -1.703125 -1.953125q-0.640625 -1.234375 -0.640625 -2.78125q0 -1.578125 0.640625 -2.796875q0.65625 -1.21875 1.75 -1.90625q1.109375 -0.703125 2.484375 -0.703125q0.8125 0 1.484375 0.234375q0.6875 0.234375 1.1875 0.671875q0.515625 0.421875 0.84375 0.984375q0.328125 0.546875 0.40625 1.1875l-0.453125 -0.15625l0 -2.703125l2.0625 0l0 10.4375l-2.0625 0l0 -2.484375l0.46875 -0.140625q-0.109375 0.53125 -0.484375 1.046875q-0.359375 0.5 -0.9375 0.90625q-0.5625 0.390625 -1.25 0.640625q-0.6875 0.234375 -1.4375 0.234375zm0.53125 -1.890625q0.9375 0 1.65625 -0.453125q0.71875 -0.46875 1.125 -1.265625q0.40625 -0.8125 0.40625 -1.84375q0 -1.015625 -0.40625 -1.8125q-0.40625 -0.796875 -1.125 -1.25q-0.71875 -0.453125 -1.65625 -0.453125q-0.90625 0 -1.625 0.453125q-0.703125 0.453125 -1.109375 1.25q-0.40625 0.796875 -0.40625 1.8125q0 1.03125 0.40625 1.84375q0.40625 0.796875 1.109375 1.265625q0.71875 0.453125 1.625 0.453125zm7.6063232 1.6875l0 -1.703125l5.390625 -7.203125l0 0.234375l-5.390625 0l0 -1.765625l7.609375 0l0 1.671875l-5.3125 7.09375l-0.078125 -0.09375l5.515625 0l0 1.765625l-7.734375 0zm21.555725 0.125q-1.609375 0 -2.890625 -0.703125q-1.265625 -0.71875 -2.0 -1.953125q-0.71875 -1.25 -0.71875 -2.8125l0 -8.59375l2.15625 0l0 8.40625q0 1.015625 0.46875 1.828125q0.484375 0.796875 1.265625 1.28125q0.78125 0.46875 1.71875 0.46875q1.0 0 1.796875 -0.46875q0.8125 -0.484375 1.28125 -1.28125q0.484375 -0.8125 0.484375 -1.828125l0 -8.40625l2.046875 0l0 8.59375q0 1.5625 -0.734375 2.8125q-0.71875 1.234375 -2.0 1.953125q-1.265625 0.703125 -2.875 0.703125zm8.79718 -0.125l0 -10.4375l2.046875 0l0 2.140625l-0.359375 0.234375q0.203125 -0.6875 0.765625 -1.265625q0.578125 -0.59375 1.375 -0.953125q0.796875 -0.375 1.640625 -0.375q1.1875 0 1.984375 0.46875q0.796875 0.46875 1.1875 1.421875q0.40625 0.953125 0.40625 2.40625l0 6.359375l-2.046875 0l0 -6.21875q0 -0.90625 -0.25 -1.484375q-0.234375 -0.59375 -0.734375 -0.859375q-0.484375 -0.265625 -1.234375 -0.234375q-0.59375 0 -1.09375 0.203125q-0.484375 0.1875 -0.859375 0.53125q-0.359375 0.328125 -0.578125 0.78125q-0.203125 0.4375 -0.203125 0.953125l0 6.328125l-1.015625 0q-0.265625 0 -0.53125 0q-0.25 0 -0.5 0zm12.162964 0l0 -10.4375l2.046875 0l0 10.4375l-2.046875 0zm1.0 -12.75q-0.65625 0 -1.015625 -0.328125q-0.359375 -0.34375 -0.359375 -0.96875q0 -0.578125 0.359375 -0.921875q0.375 -0.359375 1.015625 -0.359375q0.65625 0 1.015625 0.34375q0.359375 0.328125 0.359375 0.9375q0 0.578125 -0.375 0.9375q-0.359375 0.359375 -1.0 0.359375zm7.623352 12.75l-4.421875 -10.4375l2.203125 0l3.1875 7.8125l-0.375 0.171875l3.390625 -7.984375l2.109375 0l-4.625 10.4375l-1.46875 0zm12.552002 0.203125q-1.625 0 -2.875 -0.6875q-1.234375 -0.6875 -1.9375 -1.875q-0.703125 -1.203125 -0.703125 -2.75q0 -1.234375 0.390625 -2.25q0.40625 -1.015625 1.109375 -1.75q0.703125 -0.75 1.6875 -1.15625q0.984375 -0.421875 2.140625 -0.421875q1.015625 0 1.890625 0.390625q0.875 0.390625 1.515625 1.078125q0.65625 0.671875 1.0 1.59375q0.34375 0.921875 0.328125 2.015625l-0.015625 0.875l-8.53125 0l-0.46875 -1.625l7.21875 0l-0.296875 0.328125l0 -0.46875q-0.046875 -0.65625 -0.4375 -1.171875q-0.375 -0.515625 -0.953125 -0.8125q-0.578125 -0.3125 -1.25 -0.3125q-1.078125 0 -1.8125 0.421875q-0.734375 0.40625 -1.109375 1.1875q-0.375 0.78125 -0.375 1.9375q0 1.09375 0.453125 1.90625q0.453125 0.796875 1.28125 1.234375q0.84375 0.4375 1.9375 0.4375q0.78125 0 1.4375 -0.25q0.671875 -0.265625 1.453125 -0.9375l1.03125 1.453125q-0.484375 0.46875 -1.171875 0.828125q-0.671875 0.359375 -1.4375 0.578125q-0.765625 0.203125 -1.5 0.203125zm6.780884 -0.203125l0 -10.4375l2.0625 0l0 3.28125l-0.203125 -0.796875q0.21875 -0.765625 0.75 -1.375q0.53125 -0.609375 1.21875 -0.96875q0.6875 -0.359375 1.421875 -0.359375q0.328125 0 0.640625 0.0625q0.3125 0.046875 0.484375 0.125l-0.53125 2.234375q-0.234375 -0.09375 -0.53125 -0.15625q-0.28125 -0.078125 -0.5625 -0.078125q-0.53125 0 -1.03125 0.203125q-0.484375 0.203125 -0.859375 0.578125q-0.359375 0.375 -0.578125 0.859375q-0.21875 0.484375 -0.21875 1.0625l0 5.765625l-2.0625 0zm11.484619 0.203125q-1.3125 0 -2.375 -0.453125q-1.046875 -0.46875 -1.734375 -1.359375l1.390625 -1.1875q0.59375 0.6875 1.296875 1.0q0.71875 0.3125 1.609375 0.3125q0.359375 0 0.65625 -0.09375q0.3125 -0.09375 0.546875 -0.265625q0.234375 -0.1875 0.34375 -0.4375q0.125 -0.25 0.125 -0.546875q0 -0.515625 -0.375 -0.828125q-0.203125 -0.140625 -0.640625 -0.3125q-0.421875 -0.171875 -1.09375 -0.34375q-1.15625 -0.296875 -1.890625 -0.671875q-0.734375 -0.390625 -1.140625 -0.859375q-0.296875 -0.375 -0.4375 -0.828125q-0.140625 -0.453125 -0.140625 -0.984375q0 -0.65625 0.28125 -1.203125q0.296875 -0.546875 0.796875 -0.953125q0.515625 -0.40625 1.203125 -0.625q0.6875 -0.21875 1.46875 -0.21875q0.734375 0 1.453125 0.203125q0.734375 0.1875 1.34375 0.578125q0.625 0.375 1.03125 0.890625l-1.171875 1.28125q-0.375 -0.375 -0.828125 -0.65625q-0.4375 -0.296875 -0.90625 -0.453125q-0.453125 -0.15625 -0.828125 -0.15625q-0.421875 0 -0.765625 0.078125q-0.328125 0.078125 -0.5625 0.234375q-0.21875 0.15625 -0.34375 0.40625q-0.109375 0.234375 -0.109375 0.53125q0.015625 0.265625 0.125 0.5q0.109375 0.21875 0.3125 0.375q0.21875 0.15625 0.65625 0.34375q0.4375 0.171875 1.109375 0.328125q1.0 0.265625 1.640625 0.578125q0.640625 0.296875 1.015625 0.703125q0.40625 0.375 0.5625 0.875q0.15625 0.5 0.15625 1.109375q0 0.890625 -0.515625 1.609375q-0.5 0.703125 -1.359375 1.109375q-0.84375 0.390625 -1.90625 0.390625zm6.386963 -0.203125l0 -10.4375l2.046875 0l0 10.4375l-2.046875 0zm1.0 -12.75q-0.65625 0 -1.015625 -0.328125q-0.359375 -0.34375 -0.359375 -0.96875q0 -0.578125 0.359375 -0.921875q0.375 -0.359375 1.015625 -0.359375q0.65625 0 1.015625 0.34375q0.359375 0.328125 0.359375 0.9375q0 0.578125 -0.375 0.9375q-0.359375 0.359375 -1.0 0.359375zm5.482666 12.75l0 -13.109375l2.0625 0l0 13.109375l-2.0625 0zm-2.15625 -8.453125l0 -1.984375l6.640625 0l0 1.984375l-6.640625 0zm10.2630005 13.03125l2.109375 -4.875l0.015625 1.625l-5.21875 -11.765625l2.390625 0l3.265625 7.671875q0.09375 0.203125 0.234375 0.609375q0.140625 0.40625 0.234375 0.796875l-0.515625 0.125q0.171875 -0.421875 0.3125 -0.828125q0.15625 -0.421875 0.296875 -0.84375l2.71875 -7.53125l2.421875 0l-4.296875 10.4375l-1.765625 4.578125l-2.203125 0z" fill-rule="nonzero"/><path fill="#000000" fill-opacity="0.0" d="m218.49985 571.79706l842.99207 0l0 84.75592l-842.99207 0z" fill-rule="evenodd"/><path fill="#000000" d="m539.1045 612.0121q-1.28125 0 -2.4375 -0.34375q-1.15625 -0.328125 -2.140625 -0.953125q-0.984375 -0.640625 -1.78125 -1.515625q-0.78125 -0.890625 -1.34375 -1.9375l2.546875 -2.640625q0.78125 1.125 1.4375 1.796875q0.65625 0.671875 1.25 1.046875q0.59375 0.359375 1.1875 0.5q0.609375 0.125 1.28125 0.125q1.34375 0 2.34375 -0.609375q1.015625 -0.625 1.5625 -1.703125q0.5625 -1.078125 0.5625 -2.46875l0 -14.0625l-4.78125 0l0 -3.734375l12.84375 0l0 3.734375l-4.03125 0l0 14.4375q0 1.796875 -0.625 3.3125q-0.609375 1.5 -1.75 2.625q-1.125 1.125 -2.6875 1.765625q-1.546875 0.625 -3.4375 0.625zm22.098083 0q-2.09375 0 -3.640625 -0.96875q-1.546875 -0.96875 -2.390625 -2.71875q-0.84375 -1.765625 -0.84375 -4.1875l0 -12.09375l3.84375 0l0 11.046875q0 1.71875 0.53125 2.96875q0.546875 1.25 1.578125 1.921875q1.03125 0.671875 2.484375 0.671875q1.078125 0 1.96875 -0.359375q0.90625 -0.359375 1.546875 -0.984375q0.65625 -0.640625 1.03125 -1.53125q0.375 -0.890625 0.375 -1.9375l0 -11.796875l3.84375 0l0 19.59375l-3.84375 0l0 -4.109375l0.671875 -0.4375q-0.4375 1.375 -1.515625 2.5q-1.0625 1.109375 -2.515625 1.765625q-1.453125 0.65625 -3.125 0.65625zm15.708557 -0.375l0 -19.59375l3.84375 0l0 4.03125l-0.671875 0.4375q0.375 -1.296875 1.453125 -2.390625q1.09375 -1.109375 2.578125 -1.796875q1.5 -0.703125 3.0625 -0.703125q2.234375 0 3.71875 0.890625q1.5 0.875 2.25 2.671875q0.75 1.78125 0.75 4.515625l0 11.9375l-3.84375 0l0 -11.6875q0 -1.671875 -0.453125 -2.765625q-0.4375 -1.109375 -1.375 -1.609375q-0.9375 -0.515625 -2.3125 -0.4375q-1.125 0 -2.0625 0.359375q-0.921875 0.34375 -1.625 0.984375q-0.6875 0.640625 -1.078125 1.484375q-0.390625 0.828125 -0.390625 1.796875l0 11.875l-1.90625 0q-0.484375 0 -0.96875 0q-0.484375 0 -0.96875 0zm31.350952 0.375q-3.015625 0 -5.359375 -1.28125q-2.328125 -1.296875 -3.65625 -3.53125q-1.3125 -2.25 -1.3125 -5.15625q0 -2.3125 0.734375 -4.21875q0.75 -1.90625 2.078125 -3.296875q1.328125 -1.40625 3.171875 -2.171875q1.84375 -0.765625 4.015625 -0.765625q1.90625 0 3.546875 0.734375q1.640625 0.71875 2.84375 2.0q1.21875 1.265625 1.875 3.0q0.65625 1.734375 0.609375 3.78125l-0.03125 1.640625l-16.015625 0l-0.859375 -3.046875l13.546875 0l-0.546875 0.625l0 -0.890625q-0.125 -1.234375 -0.828125 -2.203125q-0.703125 -0.96875 -1.796875 -1.53125q-1.078125 -0.5625 -2.34375 -0.5625q-2.015625 0 -3.40625 0.765625q-1.375 0.765625 -2.09375 2.25q-0.703125 1.46875 -0.703125 3.625q0 2.0625 0.859375 3.578125q0.859375 1.5 2.421875 2.328125q1.578125 0.8125 3.625 0.8125q1.453125 0 2.703125 -0.484375q1.25 -0.484375 2.71875 -1.75l1.9375 2.71875q-0.890625 0.90625 -2.1875 1.578125q-1.28125 0.671875 -2.71875 1.0625q-1.4375 0.390625 -2.828125 0.390625zm24.685608 -0.375l10.8125 -23.59375l0.453125 1.203125l-13.21875 0l0 -3.734375l16.171875 0l0.515625 2.578125l-10.40625 23.546875l-4.328125 0zm15.592346 6.6875l-1.421875 -1.71875q1.3125 -0.75 2.125 -1.71875q0.828125 -0.96875 0.828125 -1.6875q0 -0.375 -0.1875 -0.734375q-0.1875 -0.34375 -0.78125 -0.984375q-0.75 -0.703125 -0.96875 -1.1875q-0.21875 -0.484375 -0.21875 -1.046875q0 -0.890625 0.625 -1.4375q0.640625 -0.546875 1.640625 -0.546875q0.9375 0 1.703125 0.546875q0.765625 0.546875 1.1875 1.5q0.4375 0.953125 0.4375 2.171875q0 1.125 -0.375 2.171875q-0.375 1.046875 -1.046875 1.9375q-0.671875 0.90625 -1.5625 1.609375q-0.890625 0.703125 -1.984375 1.125zm20.606018 -6.6875l-1.234375 -3.0625l8.0 -9.0q0.625 -0.671875 1.3125 -1.546875q0.703125 -0.875 1.328125 -1.796875q0.640625 -0.9375 1.03125 -1.84375q0.390625 -0.921875 0.390625 -1.75q0 -1.1875 -0.46875 -2.03125q-0.46875 -0.84375 -1.34375 -1.28125q-0.875 -0.453125 -2.109375 -0.453125q-1.078125 0 -2.125 0.640625q-1.046875 0.625 -1.90625 1.78125q-0.859375 1.15625 -1.34375 2.6875l-3.09375 -1.9375q0.625 -2.171875 1.90625 -3.71875q1.296875 -1.546875 3.109375 -2.359375q1.8125 -0.828125 3.9375 -0.828125q2.203125 0 3.921875 0.921875q1.71875 0.90625 2.6875 2.53125q0.96875 1.625 0.96875 3.75q0 0.859375 -0.1875 1.765625q-0.1875 0.890625 -0.59375 1.84375q-0.40625 0.9375 -1.046875 1.96875q-0.640625 1.03125 -1.515625 2.15625q-0.875 1.109375 -1.984375 2.34375l-5.9375 6.453125l-0.75 -1.109375l12.84375 0l0 3.875l-15.796875 0zm28.299622 0.375q-2.984375 0 -5.140625 -1.640625q-2.140625 -1.640625 -3.296875 -4.640625q-1.15625 -3.015625 -1.15625 -7.15625q0 -4.140625 1.15625 -7.140625q1.15625 -3.015625 3.296875 -4.65625q2.15625 -1.640625 5.140625 -1.640625q2.984375 0 5.140625 1.640625q2.171875 1.640625 3.328125 4.65625q1.15625 3.0 1.15625 7.140625q0 4.140625 -1.15625 7.15625q-1.15625 3.0 -3.328125 4.640625q-2.15625 1.640625 -5.140625 1.640625zm0 -3.65625q2.71875 0 4.203125 -2.5625q1.5 -2.5625 1.5 -7.21875q0 -4.671875 -1.5 -7.21875q-1.484375 -2.5625 -4.203125 -2.5625q-2.734375 0 -4.234375 2.5625q-1.484375 2.546875 -1.484375 7.21875q0 4.65625 1.484375 7.21875q1.5 2.5625 4.234375 2.5625zm14.814514 3.28125l-1.234375 -3.0625l8.0 -9.0q0.625 -0.671875 1.3125 -1.546875q0.703125 -0.875 1.328125 -1.796875q0.640625 -0.9375 1.03125 -1.84375q0.390625 -0.921875 0.390625 -1.75q0 -1.1875 -0.46875 -2.03125q-0.46875 -0.84375 -1.34375 -1.28125q-0.875 -0.453125 -2.109375 -0.453125q-1.078125 0 -2.125 0.640625q-1.046875 0.625 -1.90625 1.78125q-0.859375 1.15625 -1.34375 2.6875l-3.09375 -1.9375q0.625 -2.171875 1.90625 -3.71875q1.296875 -1.546875 3.109375 -2.359375q1.8125 -0.828125 3.9375 -0.828125q2.203125 0 3.921875 0.921875q1.71875 0.90625 2.6875 2.53125q0.96875 1.625 0.96875 3.75q0 0.859375 -0.1875 1.765625q-0.1875 0.890625 -0.59375 1.84375q-0.40625 0.9375 -1.046875 1.96875q-0.640625 1.03125 -1.515625 2.15625q-0.875 1.109375 -1.984375 2.34375l-5.9375 6.453125l-0.75 -1.109375l12.84375 0l0 3.875l-15.796875 0zm26.580872 0.265625q-2.578125 0 -4.671875 -1.171875q-2.078125 -1.1875 -3.46875 -3.390625l2.25 -2.5q1.75 1.9375 3.046875 2.65625q1.3125 0.703125 2.84375 0.703125q1.53125 0 2.765625 -0.671875q1.234375 -0.671875 1.953125 -1.828125q0.734375 -1.15625 0.734375 -2.578125q0 -1.484375 -0.703125 -2.65625q-0.6875 -1.1875 -1.84375 -1.875q-1.15625 -0.6875 -2.609375 -0.6875q-0.703125 0 -1.34375 0.09375q-0.640625 0.09375 -1.53125 0.4375q-0.890625 0.328125 -2.34375 1.03125l-2.140625 -2.875l1.53125 -11.078125l14.109375 0l0 3.734375l-11.5625 0l0.78125 -0.71875l-1.234375 8.296875l-0.9375 -1.09375q0.375 -0.375 1.265625 -0.71875q0.90625 -0.359375 2.0 -0.59375q1.109375 -0.25 2.109375 -0.25q2.390625 0 4.28125 1.109375q1.890625 1.09375 2.984375 3.03125q1.109375 1.9375 1.109375 4.4375q0 2.578125 -1.234375 4.65625q-1.234375 2.0625 -3.359375 3.28125q-2.125 1.21875 -4.78125 1.21875z" fill-rule="nonzero"/></g></svg>