<?xml version="1.0" standalone="no"?>
<!DOCTYPE svg PUBLIC "-//W3C//DTD SVG 20010904//EN"
 "http://www.w3.org/TR/2001/REC-SVG-20010904/DTD/svg10.dtd">
<svg version="1.0" xmlns="http://www.w3.org/2000/svg"
 width="48.000000pt" height="48.000000pt" viewBox="0 0 48.000000 48.000000"
 preserveAspectRatio="xMidYMid meet">

<g transform="translate(0.000000,48.000000) scale(0.100000,-0.100000)"
fill="#000000" stroke="none">
<path d="M238 416 c-36 -27 -53 -137 -24 -160 16 -13 29 -113 15 -121 -5 -4
-9 -2 -9 2 0 13 -67 46 -79 39 -6 -4 -11 -16 -11 -27 0 -23 -9 -24 -25 -3 -10
15 -16 13 -48 -19 -21 -19 -37 -31 -37 -26 0 6 -4 7 -10 4 -5 -3 -10 -21 -10
-39 0 -30 3 -33 24 -29 17 4 28 -1 38 -16 12 -20 21 -21 158 -21 130 1 143 2
126 15 -19 14 -19 15 7 15 19 0 25 -4 21 -15 -5 -12 4 -15 50 -15 55 0 56 1
56 28 0 15 -7 35 -14 45 -13 16 -14 16 -20 -5 -7 -21 -9 -20 -26 17 -16 35
-19 37 -20 15 0 -14 -7 -33 -15 -44 -13 -17 -15 -17 -29 -3 -21 21 -20 30 9
61 23 25 55 35 55 18 0 -8 43 -32 55 -32 3 0 3 19 1 43 -2 23 -4 47 -5 53 -1
7 -9 15 -18 19 -15 5 -16 4 -5 -6 20 -21 14 -34 -8 -14 -18 17 -21 17 -45 1
-14 -9 -29 -15 -33 -12 -4 2 -9 -5 -9 -16 -1 -11 -11 -29 -22 -39 -26 -25 -34
-24 -19 2 11 17 10 22 -7 35 -17 13 -18 16 -5 24 8 5 20 10 27 10 8 0 12 20
12 60 -1 48 -4 60 -19 65 -10 3 -20 18 -22 35 -5 32 2 36 32 20 16 -8 18 -7
14 4 -3 9 -14 18 -25 21 -10 4 -19 11 -19 16 0 13 -42 10 -62 -5z m-17 -89
c-10 -9 -11 -8 -5 6 3 10 9 15 12 12 3 -3 0 -11 -7 -18z m89 -72 c0 -4 -7 -5
-15 -1 -8 3 -15 1 -15 -4 0 -6 -4 -10 -9 -10 -5 0 -4 11 2 24 9 19 14 21 24
10 7 -7 13 -16 13 -19z m160 -85 c0 -5 -5 -10 -11 -10 -5 0 -7 5 -4 10 3 6 8
10 11 10 2 0 4 -4 4 -10z m-80 -10 c0 -5 -2 -10 -4 -10 -3 0 -8 5 -11 10 -3 6
-1 10 4 10 6 0 11 -4 11 -10z"/>
<path d="M197 174 c3 -7 9 -14 14 -14 14 0 10 17 -5 23 -10 4 -13 1 -9 -9z"/>
</g>
</svg>
